<?xml version="1.0" encoding="UTF-8" standalone="no" ?>
<!DOCTYPE svg PUBLIC "-//W3C//DTD SVG 1.1//EN" "http://www.w3.org/Graphics/SVG/1.1/DTD/svg11.dtd">
<svg xmlns="http://www.w3.org/2000/svg" xmlns:xlink="http://www.w3.org/1999/xlink" version="1.1" width="1080" height="1080" viewBox="0 0 1080 1080" xml:space="preserve">
<desc>Created with Fabric.js 5.2.4</desc>
<defs>
</defs>
<g transform="matrix(1 0 0 1 540 540)" id="ce76a8f8-215e-4bc3-941c-74cccad47ec8"  >
</g>
<g transform="matrix(1 0 0 1 540 540)" id="2ac8d1b3-eaa9-4c3c-9eee-6b721b2a61f9"  >
<rect style="stroke: none; stroke-width: 1; stroke-dasharray: none; stroke-linecap: butt; stroke-dashoffset: 0; stroke-linejoin: miter; stroke-miterlimit: 4; fill: rgb(255,255,255); fill-rule: nonzero; opacity: 1; visibility: hidden;" vector-effect="non-scaling-stroke"  x="-540" y="-540" rx="0" ry="0" width="1080" height="1080" />
</g>
<g transform="matrix(1 0 0 1 540 540)"  >
<g style="" vector-effect="non-scaling-stroke"   >
		<g transform="matrix(1 0 0 1 -55.38 -25.64)" clip-path="url(#CLIPPATH_7)"  >
<clipPath id="CLIPPATH_7" >
	<path transform="matrix(1 0 0 1 49.54 129.6) translate(-396.88, -561.52)" d="M 0 0.48 L 0 1122.5601 L 793.76001 1122.5601 L 793.76001 0.48 Z" stroke-linecap="round" />
</clipPath>
<path style="stroke: rgb(0,0,0); stroke-width: 0.64; stroke-dasharray: none; stroke-linecap: butt; stroke-dashoffset: 0; stroke-linejoin: miter; stroke-miterlimit: 10; fill: none; fill-rule: nonzero; opacity: 1;" vector-effect="non-scaling-stroke"  transform=" translate(-341.59, -429.55)" d="M 303.76001 429.54999 L 329.57001 429.54999 M 353.45001 429.54999 L 379.41 429.54999" stroke-linecap="round" />
</g>
		<g transform="matrix(1 0 0 1 -51.28 -25.71)" clip-path="url(#CLIPPATH_8)"  >
<clipPath id="CLIPPATH_8" >
	<path transform="matrix(1 0 0 1 -308 -299.87) translate(-396.88, -561.52)" d="M 0 0.48 L 0 1122.5601 L 793.76001 1122.5601 L 793.76001 0.48 Z" stroke-linecap="round" />
</clipPath>
<path style="stroke: rgb(0,0,0); stroke-width: 1.12; stroke-dasharray: none; stroke-linecap: butt; stroke-dashoffset: 0; stroke-linejoin: miter; stroke-miterlimit: 10; fill: none; fill-rule: nonzero; opacity: 1;" vector-effect="non-scaling-stroke"  transform=" translate(7.78, 0.07)" d="M 0 0 C 0 -4.32 -3.37 -7.84 -7.7 -7.84 C -12.02 -7.84 -15.55 -4.32 -15.55 0 C -15.55 4.33 -12.020000000000001 7.69 -7.700000000000001 7.69 C -3.37 7.69 0 4.33 0 0 Z" stroke-linecap="round" />
</g>
		<g transform="matrix(1 0 0 1 -59.62 -25.71)" clip-path="url(#CLIPPATH_9)"  >
<clipPath id="CLIPPATH_9" >
	<path transform="matrix(1 0 0 1 -275.78 -299.87) translate(-396.88, -561.52)" d="M 0 0.48 L 0 1122.5601 L 793.76001 1122.5601 L 793.76001 0.48 Z" stroke-linecap="round" />
</clipPath>
<path style="stroke: rgb(0,0,0); stroke-width: 1.12; stroke-dasharray: none; stroke-linecap: butt; stroke-dashoffset: 0; stroke-linejoin: miter; stroke-miterlimit: 10; fill: none; fill-rule: nonzero; opacity: 1;" vector-effect="non-scaling-stroke"  transform=" translate(-7.77, 0.07)" d="M 0 0 C 0 4.33 3.52 7.69 7.85 7.69 C 12.02 7.69 15.54 4.33 15.54 0 C 15.54 -4.32 12.02 -7.84 7.849999999999999 -7.84 C 3.52 -7.84 0 -4.32 0 0 Z" stroke-linecap="round" />
</g>
		<g transform="matrix(1 0 0 1 -93.2 12.16)" clip-path="url(#CLIPPATH_10)"  >
<clipPath id="CLIPPATH_10" >
	<path transform="matrix(1 0 0 1 87.37 91.81) translate(-396.88, -561.52)" d="M 0 0.48 L 0 1122.5601 L 793.76001 1122.5601 L 793.76001 0.48 Z" stroke-linecap="round" />
</clipPath>
<path style="stroke: rgb(0,0,0); stroke-width: 0.64; stroke-dasharray: none; stroke-linecap: butt; stroke-dashoffset: 0; stroke-linejoin: miter; stroke-miterlimit: 10; fill: none; fill-rule: nonzero; opacity: 1;" vector-effect="non-scaling-stroke"  transform=" translate(-303.76, -467.35)" d="M 303.76001 429.54999 L 303.76001 454.69 M 303.76001 480 L 303.76001 505.14001" stroke-linecap="round" />
</g>
		<g transform="matrix(1 0 0 1 -93.28 12.16)" clip-path="url(#CLIPPATH_11)"  >
<clipPath id="CLIPPATH_11" >
	<path transform="matrix(1 0 0 1 -216.32 -362.24) translate(-396.88, -561.52)" d="M 0 0.48 L 0 1122.5601 L 793.76001 1122.5601 L 793.76001 0.48 Z" stroke-linecap="round" />
</clipPath>
<path style="stroke: rgb(0,0,0); stroke-width: 1.12; stroke-dasharray: none; stroke-linecap: butt; stroke-dashoffset: 0; stroke-linejoin: bevel; stroke-miterlimit: 10; fill: none; fill-rule: nonzero; opacity: 1;" vector-effect="non-scaling-stroke"  transform=" translate(0.08, -13.29)" d="M 0 0 L 4.65 2.73 L -4.8 7.05 L 4.65 11.37 L -4.8 15.7 L 4.65 20.02 L -4.8 24.34 L 0 26.59" stroke-linecap="round" />
</g>
		<g transform="matrix(1 0 0 1 -17.55 12.16)" clip-path="url(#CLIPPATH_12)"  >
<clipPath id="CLIPPATH_12" >
	<path transform="matrix(1 0 0 1 11.72 91.81) translate(-396.88, -561.52)" d="M 0 0.48 L 0 1122.5601 L 793.76001 1122.5601 L 793.76001 0.48 Z" stroke-linecap="round" />
</clipPath>
<path style="stroke: rgb(0,0,0); stroke-width: 0.64; stroke-dasharray: none; stroke-linecap: butt; stroke-dashoffset: 0; stroke-linejoin: miter; stroke-miterlimit: 10; fill: none; fill-rule: nonzero; opacity: 1;" vector-effect="non-scaling-stroke"  transform=" translate(-379.41, -467.35)" d="M 379.41 429.54999 L 379.41 454.69 M 379.41 480 L 379.41 505.14001" stroke-linecap="round" />
</g>
		<g transform="matrix(1 0 0 1 -17.55 12.16)" clip-path="url(#CLIPPATH_13)"  >
<clipPath id="CLIPPATH_13" >
	<path transform="matrix(1 0 0 1 11.72 91.81) translate(-396.88, -561.52)" d="M 0 0.48 L 0 1122.5601 L 793.76001 1122.5601 L 793.76001 0.48 Z" stroke-linecap="round" />
</clipPath>
<path style="stroke: rgb(0,0,0); stroke-width: 1.12; stroke-dasharray: none; stroke-linecap: butt; stroke-dashoffset: 0; stroke-linejoin: miter; stroke-miterlimit: 10; fill: none; fill-rule: nonzero; opacity: 1;" vector-effect="non-scaling-stroke"  transform=" translate(-379.41, -467.35)" d="M 374.60001 480 L 374.60001 454.69 L 384.22 454.69 L 384.22 480 Z" stroke-linecap="round" />
</g>
		<g transform="matrix(1 0 0 1 20.27 12.16)" clip-path="url(#CLIPPATH_14)"  >
<clipPath id="CLIPPATH_14" >
	<path transform="matrix(1 0 0 1 -26.1 91.81) translate(-396.88, -561.52)" d="M 0 0.48 L 0 1122.5601 L 793.76001 1122.5601 L 793.76001 0.48 Z" stroke-linecap="round" />
</clipPath>
<path style="stroke: rgb(0,0,0); stroke-width: 0.64; stroke-dasharray: none; stroke-linecap: butt; stroke-dashoffset: 0; stroke-linejoin: miter; stroke-miterlimit: 10; fill: none; fill-rule: nonzero; opacity: 1;" vector-effect="non-scaling-stroke"  transform=" translate(-417.23, -467.35)" d="M 417.23001 429.54999 L 417.23001 454.69 M 417.23001 480 L 417.23001 505.14001" stroke-linecap="round" />
</g>
		<g transform="matrix(1 0 0 1 20.27 12.16)" clip-path="url(#CLIPPATH_15)"  >
<clipPath id="CLIPPATH_15" >
	<path transform="matrix(1 0 0 1 -26.1 91.81) translate(-396.88, -561.52)" d="M 0 0.48 L 0 1122.5601 L 793.76001 1122.5601 L 793.76001 0.48 Z" stroke-linecap="round" />
</clipPath>
<path style="stroke: rgb(0,0,0); stroke-width: 1.12; stroke-dasharray: none; stroke-linecap: butt; stroke-dashoffset: 0; stroke-linejoin: miter; stroke-miterlimit: 10; fill: none; fill-rule: nonzero; opacity: 1;" vector-effect="non-scaling-stroke"  transform=" translate(-417.23, -467.35)" d="M 412.42001 480 L 412.42001 454.69 L 422.04001 454.69 L 422.04001 480 Z" stroke-linecap="round" />
</g>
		<g transform="matrix(1 0 0 1 58.17 -25.64)" clip-path="url(#CLIPPATH_16)"  >
<clipPath id="CLIPPATH_16" >
	<path transform="matrix(1 0 0 1 -64.01 129.6) translate(-396.88, -561.52)" d="M 0 0.48 L 0 1122.5601 L 793.76001 1122.5601 L 793.76001 0.48 Z" stroke-linecap="round" />
</clipPath>
<path style="stroke: rgb(0,0,0); stroke-width: 0.64; stroke-dasharray: none; stroke-linecap: butt; stroke-dashoffset: 0; stroke-linejoin: miter; stroke-miterlimit: 10; fill: none; fill-rule: nonzero; opacity: 1;" vector-effect="non-scaling-stroke"  transform=" translate(-455.14, -429.55)" d="M 417.23001 429.54999 L 442.39001 429.54999 M 467.87 429.54999 L 493.04001 429.54999" stroke-linecap="round" />
</g>
		<g transform="matrix(1 0 0 1 58.17 -25.64)" clip-path="url(#CLIPPATH_17)"  >
<clipPath id="CLIPPATH_17" >
	<path transform="matrix(1 0 0 1 -64 129.6) translate(-396.88, -561.52)" d="M 0 0.48 L 0 1122.5601 L 793.76001 1122.5601 L 793.76001 0.48 Z" stroke-linecap="round" />
</clipPath>
<path style="stroke: rgb(0,0,0); stroke-width: 1.12; stroke-dasharray: none; stroke-linecap: butt; stroke-dashoffset: 0; stroke-linejoin: miter; stroke-miterlimit: 10; fill: none; fill-rule: nonzero; opacity: 1;" vector-effect="non-scaling-stroke"  transform=" translate(-455.13, -429.55)" d="M 442.39001 424.75 L 467.87 424.75 L 467.87 434.35999 L 442.39001 434.35999 z" stroke-linecap="round" />
</g>
		<g transform="matrix(1 0 0 1 96.08 12.16)" clip-path="url(#CLIPPATH_18)"  >
<clipPath id="CLIPPATH_18" >
	<path transform="matrix(1 0 0 1 -101.91 91.81) translate(-396.88, -561.52)" d="M 0 0.48 L 0 1122.5601 L 793.76001 1122.5601 L 793.76001 0.48 Z" stroke-linecap="round" />
</clipPath>
<path style="stroke: rgb(0,0,0); stroke-width: 0.64; stroke-dasharray: none; stroke-linecap: butt; stroke-dashoffset: 0; stroke-linejoin: miter; stroke-miterlimit: 10; fill: none; fill-rule: nonzero; opacity: 1;" vector-effect="non-scaling-stroke"  transform=" translate(-493.04, -467.35)" d="M 493.04001 429.54999 L 493.04001 454.69 M 493.04001 480 L 493.04001 505.14001" stroke-linecap="round" />
</g>
		<g transform="matrix(1 0 0 1 95.99 12.16)" clip-path="url(#CLIPPATH_19)"  >
<clipPath id="CLIPPATH_19" >
	<path transform="matrix(1 0 0 1 -101.83 91.81) translate(-396.88, -561.52)" d="M 0 0.48 L 0 1122.5601 L 793.76001 1122.5601 L 793.76001 0.48 Z" stroke-linecap="round" />
</clipPath>
<path style="stroke: rgb(0,0,0); stroke-width: 1.12; stroke-dasharray: none; stroke-linecap: butt; stroke-dashoffset: 0; stroke-linejoin: miter; stroke-miterlimit: 10; fill: none; fill-rule: nonzero; opacity: 1;" vector-effect="non-scaling-stroke"  transform=" translate(-492.95, -467.35)" d="M 488.23001 480 L 488.23001 454.69 L 497.67999 454.69 L 497.67999 480 Z" stroke-linecap="round" />
</g>
		<g transform="matrix(1 0 0 1 -112.19 -25.64)" clip-path="url(#CLIPPATH_20)"  >
<clipPath id="CLIPPATH_20" >
	<path transform="matrix(1 0 0 1 106.36 129.6) translate(-396.88, -561.52)" d="M 0 0.48 L 0 1122.5601 L 793.76001 1122.5601 L 793.76001 0.48 Z" stroke-linecap="round" />
</clipPath>
<path style="stroke: rgb(0,0,0); stroke-width: 0.64; stroke-dasharray: none; stroke-linecap: butt; stroke-dashoffset: 0; stroke-linejoin: miter; stroke-miterlimit: 10; fill: none; fill-rule: nonzero; opacity: 1;" vector-effect="non-scaling-stroke"  transform=" translate(-284.77, -429.55)" d="M 265.78 429.54999 L 284.69 429.54999 M 284.69 429.54999 L 303.76001 429.54999" stroke-linecap="round" />
</g>
		<g transform="matrix(1 0 0 1 -131.1 -25.64)" clip-path="url(#CLIPPATH_21)"  >
<clipPath id="CLIPPATH_21" >
	<path transform="matrix(1 0 0 1 -142.75 -299.95) translate(-396.88, -561.52)" d="M 0 0.48 L 0 1122.5601 L 793.76001 1122.5601 L 793.76001 0.48 Z" stroke-linecap="round" />
</clipPath>
<path style="stroke: rgb(0,0,0); stroke-width: 0.64; stroke-dasharray: none; stroke-linecap: butt; stroke-dashoffset: 0; stroke-linejoin: miter; stroke-miterlimit: 10; fill: rgb(0,0,0); fill-rule: nonzero; opacity: 1;" vector-effect="non-scaling-stroke"  transform=" translate(2.16, 0)" d="M 0 0 C 0 -1.12 -0.96 -2.08 -2.24 -2.08 C -3.3600000000000003 -2.08 -4.32 -1.12 -4.32 0 C -4.32 1.12 -3.3600000000000003 2.08 -2.24 2.08 C -0.96 2.08 0 1.12 0 0 Z" stroke-linecap="round" />
</g>
		<g transform="matrix(1 0 0 1 -111.71 -25.72)" clip-path="url(#CLIPPATH_22)"  >
<clipPath id="CLIPPATH_22" >
	<path transform="matrix(1 0 0 1 105.87 129.68) translate(-396.88, -561.52)" d="M 0 0.48 L 0 1122.5601 L 793.76001 1122.5601 L 793.76001 0.48 Z" stroke-linecap="round" />
</clipPath>
<path style="stroke: none; stroke-width: 1; stroke-dasharray: none; stroke-linecap: butt; stroke-dashoffset: 0; stroke-linejoin: miter; stroke-miterlimit: 4; fill: rgb(0,0,0); fill-rule: nonzero; opacity: 1;" vector-effect="non-scaling-stroke"  transform=" translate(-285.26, -429.47)" d="M 282.45001 429.54999 L 282.45001 432.10999 L 288.06 429.54999 L 282.45001 426.82998999999995 z" stroke-linecap="round" />
</g>
		<g transform="matrix(1 0 0 1 -111.71 -25.72)" clip-path="url(#CLIPPATH_23)"  >
<clipPath id="CLIPPATH_23" >
	<path transform="matrix(1 0 0 1 105.87 129.68) translate(-396.88, -561.52)" d="M 0 0.48 L 0 1122.5601 L 793.76001 1122.5601 L 793.76001 0.48 Z" stroke-linecap="round" />
</clipPath>
<path style="stroke: rgb(0,0,0); stroke-width: 0.64; stroke-dasharray: none; stroke-linecap: butt; stroke-dashoffset: 0; stroke-linejoin: miter; stroke-miterlimit: 10; fill: none; fill-rule: nonzero; opacity: 1;" vector-effect="non-scaling-stroke"  transform=" translate(-285.26, -429.47)" d="M 282.45001 429.54999 L 282.45001 432.10999 L 288.06 429.54999 L 282.45001 426.82998999999995 L 282.45001 429.54999" stroke-linecap="round" />
</g>
		<g transform="matrix(1 0 0 1 -115.31 -37.16)" clip-path="url(#CLIPPATH_24)"  >
<clipPath id="CLIPPATH_24" >
	<path transform="matrix(1 0 0 1 -173.29 -274.01) translate(-396.88, -561.52)" d="M 0 0.48 L 0 1122.5601 L 793.76001 1122.5601 L 793.76001 0.48 Z" stroke-linecap="round" />
</clipPath>
<path style="stroke: none; stroke-width: 1; stroke-dasharray: none; stroke-linecap: butt; stroke-dashoffset: 0; stroke-linejoin: miter; stroke-miterlimit: 4; fill: rgb(0,0,0); fill-rule: nonzero; opacity: 1;" vector-effect="non-scaling-stroke"  transform=" translate(1.12, -2.88)" d="M 0 0 C 0.16 -0.32 0.16 -0.48 0.96 -0.48 C 1.28 -0.48 1.28 -0.48 1.28 -0.64 C 1.28 -0.64 1.28 -0.8 1.12 -0.8 C 0.9600000000000001 -0.8 0.6400000000000001 -0.8 0.4800000000000001 -0.8 L -0.9599999999999999 -0.8 C -1.1199999999999999 -0.8 -1.44 -0.8 -1.5999999999999999 -0.8 C -1.5999999999999999 -0.8 -1.7599999999999998 -0.8 -1.7599999999999998 -0.64 C -1.7599999999999998 -0.48 -1.7599999999999998 -0.48 -1.4399999999999997 -0.48 C -0.7999999999999997 -0.48 -0.7999999999999997 -0.31999999999999995 -0.7999999999999997 -0.15999999999999998 C -0.7999999999999997 -0.15999999999999998 -0.7999999999999997 -0.15999999999999998 -0.7999999999999997 2.7755575615628914e-17 L -2.2499999999999996 5.6 C -2.4099999999999997 6.08 -2.4099999999999997 6.08 -3.2099999999999995 6.08 C -3.5299999999999994 6.08 -3.5299999999999994 6.08 -3.5299999999999994 6.41 C -3.5299999999999994 6.41 -3.5299999999999994 6.57 -3.369999999999999 6.57 C -3.209999999999999 6.57 -2.8899999999999992 6.41 -2.729999999999999 6.41 L -1.2799999999999991 6.41 C -1.1199999999999992 6.41 -0.7999999999999992 6.57 -0.6399999999999991 6.57 C -0.4799999999999991 6.57 -0.3199999999999991 6.57 -0.3199999999999991 6.25 C -0.3199999999999991 6.08 -0.4799999999999991 6.08 -0.7999999999999992 6.08 C -0.9599999999999992 6.08 -0.9599999999999992 6.08 -1.1199999999999992 6.08 C -1.2799999999999991 6.08 -1.4399999999999993 6.08 -1.4399999999999993 5.92 C -1.4399999999999993 5.92 -1.4399999999999993 5.92 -1.2799999999999994 5.76 z" stroke-linecap="round" />
</g>
		<g transform="matrix(1 0 0 1 -115.4 -31.88)" clip-path="url(#CLIPPATH_25)"  >
<clipPath id="CLIPPATH_25" >
	<path transform="matrix(1 0 0 1 109.56 135.84) translate(-396.88, -561.52)" d="M 0 0.48 L 0 1122.5601 L 793.76001 1122.5601 L 793.76001 0.48 Z" stroke-linecap="round" />
</clipPath>
<path style="stroke: rgb(0,0,0); stroke-width: 0.48; stroke-dasharray: none; stroke-linecap: butt; stroke-dashoffset: 0; stroke-linejoin: miter; stroke-miterlimit: 10; fill: none; fill-rule: nonzero; opacity: 1;" vector-effect="non-scaling-stroke"  transform=" translate(-281.57, -423.31)" d="M 278.76001 423.31 L 284.37 423.31" stroke-linecap="round" />
</g>
		<g transform="matrix(1 0 0 1 -109.63 -32.45)" clip-path="url(#CLIPPATH_26)"  >
<clipPath id="CLIPPATH_26" >
	<path transform="matrix(1 0 0 1 -184.11 -285.14) translate(-396.88, -561.52)" d="M 0 0.48 L 0 1122.5601 L 793.76001 1122.5601 L 793.76001 0.48 Z" stroke-linecap="round" />
</clipPath>
<path style="stroke: none; stroke-width: 1; stroke-dasharray: none; stroke-linecap: butt; stroke-dashoffset: 0; stroke-linejoin: miter; stroke-miterlimit: 4; fill: rgb(0,0,0); fill-rule: nonzero; opacity: 1;" vector-effect="non-scaling-stroke"  transform=" translate(0.56, -1.19)" d="M 0 0 L 0.8 0 C 0.96 0 1.12 0 1.12 -0.16 C 1.12 -0.33 0.96 -0.33 0.8 -0.33 L 0 -0.33 C 0.32 -1.61 0.32 -1.61 0.32 -1.77 C 0.32 -1.93 0.32 -2.09 0.48 -2.09 C 0.64 -2.25 0.64 -2.25 0.8 -2.25 C 0.9600000000000001 -2.25 0.9600000000000001 -2.25 1.12 -2.09 C 0.9600000000000001 -2.09 0.8 -1.93 0.8 -1.7699999999999998 C 0.8 -1.6099999999999999 0.9600000000000001 -1.4499999999999997 1.12 -1.4499999999999997 C 1.4400000000000002 -1.4499999999999997 1.6 -1.6099999999999997 1.6 -1.9299999999999997 C 1.6 -2.4099999999999997 1.12 -2.4099999999999997 0.8 -2.4099999999999997 C 0.48000000000000004 -2.4099999999999997 -0.15999999999999992 -2.2499999999999996 -0.32000000000000006 -1.4499999999999997 C -0.4800000000000001 -1.2899999999999998 -0.4800000000000001 -1.1299999999999997 -0.4800000000000001 -0.8099999999999997 C -0.4800000000000001 -0.6499999999999997 -0.4800000000000001 -0.4899999999999997 -0.6400000000000001 -0.32999999999999974 L -1.29 -0.32999999999999974 C -1.45 -0.32999999999999974 -1.61 -0.32999999999999974 -1.61 -0.15999999999999973 C -1.61 0 -1.45 0 -1.29 0 L -0.64 0 C -0.96 1.76 -1.12 2.4 -1.12 2.56 C -1.45 4 -1.45 4 -1.45 4.16 C -1.6099999999999999 4.32 -1.77 4.48 -1.93 4.48 C -1.93 4.48 -2.09 4.48 -2.25 4.48 C -2.09 4.32 -1.93 4.16 -1.93 4 C -1.93 3.84 -2.09 3.68 -2.25 3.68 C -2.57 3.68 -2.73 3.8400000000000003 -2.73 4.16 C -2.73 4.640000000000001 -2.25 4.8 -1.93 4.8 C -1.45 4.8 -1.1199999999999999 4.4799999999999995 -0.96 4.16 C -0.6399999999999999 3.8400000000000003 -0.48 2.88 -0.48 2.72 z" stroke-linecap="round" />
</g>
		<g transform="matrix(1 0 0 1 114.99 -25.64)" clip-path="url(#CLIPPATH_27)"  >
<clipPath id="CLIPPATH_27" >
	<path transform="matrix(1 0 0 1 -120.82 129.6) translate(-396.88, -561.52)" d="M 0 0.48 L 0 1122.5601 L 793.76001 1122.5601 L 793.76001 0.48 Z" stroke-linecap="round" />
</clipPath>
<path style="stroke: rgb(0,0,0); stroke-width: 0.64; stroke-dasharray: none; stroke-linecap: butt; stroke-dashoffset: 0; stroke-linejoin: miter; stroke-miterlimit: 10; fill: none; fill-rule: nonzero; opacity: 1;" vector-effect="non-scaling-stroke"  transform=" translate(-511.95, -429.55)" d="M 530.85998 429.54999 L 511.95000999999996 429.54999 M 511.95000999999996 429.54999 L 493.04000999999994 429.54999" stroke-linecap="round" />
</g>
		<g transform="matrix(1 0 0 1 133.9 -25.64)" clip-path="url(#CLIPPATH_28)"  >
<clipPath id="CLIPPATH_28" >
	<path transform="matrix(1 0 0 1 -672.67 -299.95) translate(-396.88, -561.52)" d="M 0 0.48 L 0 1122.5601 L 793.76001 1122.5601 L 793.76001 0.48 Z" stroke-linecap="round" />
</clipPath>
<path style="stroke: rgb(0,0,0); stroke-width: 0.64; stroke-dasharray: none; stroke-linecap: butt; stroke-dashoffset: 0; stroke-linejoin: miter; stroke-miterlimit: 10; fill: rgb(0,0,0); fill-rule: nonzero; opacity: 1;" vector-effect="non-scaling-stroke"  transform=" translate(2.08, 0)" d="M 0 0 C 0 -1.12 -0.96 -2.08 -2.08 -2.08 C -3.2 -2.08 -4.16 -1.12 -4.16 0 C -4.16 1.12 -3.2 2.08 -2.08 2.08 C -0.96 2.08 0 1.12 0 0 Z" stroke-linecap="round" />
</g>
		<g transform="matrix(1 0 0 1 114.43 -25.72)" clip-path="url(#CLIPPATH_29)"  >
<clipPath id="CLIPPATH_29" >
	<path transform="matrix(1 0 0 1 -120.26 129.68) translate(-396.88, -561.52)" d="M 0 0.48 L 0 1122.5601 L 793.76001 1122.5601 L 793.76001 0.48 Z" stroke-linecap="round" />
</clipPath>
<path style="stroke: none; stroke-width: 1; stroke-dasharray: none; stroke-linecap: butt; stroke-dashoffset: 0; stroke-linejoin: miter; stroke-miterlimit: 4; fill: rgb(0,0,0); fill-rule: nonzero; opacity: 1;" vector-effect="non-scaling-stroke"  transform=" translate(-511.38, -429.47)" d="M 514.19 429.54999 L 514.19 426.82998999999995 L 508.57999000000007 429.54999 L 514.19 432.10999 z" stroke-linecap="round" />
</g>
		<g transform="matrix(1 0 0 1 114.43 -25.72)" clip-path="url(#CLIPPATH_30)"  >
<clipPath id="CLIPPATH_30" >
	<path transform="matrix(1 0 0 1 -120.26 129.68) translate(-396.88, -561.52)" d="M 0 0.48 L 0 1122.5601 L 793.76001 1122.5601 L 793.76001 0.48 Z" stroke-linecap="round" />
</clipPath>
<path style="stroke: rgb(0,0,0); stroke-width: 0.64; stroke-dasharray: none; stroke-linecap: butt; stroke-dashoffset: 0; stroke-linejoin: miter; stroke-miterlimit: 10; fill: none; fill-rule: nonzero; opacity: 1;" vector-effect="non-scaling-stroke"  transform=" translate(-511.38, -429.47)" d="M 514.19 429.54999 L 514.19 426.82998999999995 L 508.57999000000007 429.54999 L 514.19 432.10999 L 514.19 429.54999" stroke-linecap="round" />
</g>
		<g transform="matrix(1 0 0 1 112.83 -35.64)" clip-path="url(#CLIPPATH_31)"  >
<clipPath id="CLIPPATH_31" >
	<path transform="matrix(1 0 0 1 -629.65 -277.13) translate(-396.88, -561.52)" d="M 0 0.48 L 0 1122.5601 L 793.76001 1122.5601 L 793.76001 0.48 Z" stroke-linecap="round" />
</clipPath>
<path style="stroke: none; stroke-width: 1; stroke-dasharray: none; stroke-linecap: butt; stroke-dashoffset: 0; stroke-linejoin: miter; stroke-miterlimit: 4; fill: rgb(0,0,0); fill-rule: nonzero; opacity: 1;" vector-effect="non-scaling-stroke"  transform=" translate(1.2, -2.8)" d="M 0 0 C 0 -0.32 0 -0.48 0.8 -0.48 C 1.12 -0.48 1.28 -0.48 1.28 -0.64 C 1.28 -0.64 1.28 -0.8 1.12 -0.8 C 0.9600000000000001 -0.8 0.4800000000000001 -0.8 0.32000000000000006 -0.8 L -1.13 -0.8 C -1.2899999999999998 -0.8 -1.6099999999999999 -0.8 -1.77 -0.8 C -1.77 -0.8 -1.93 -0.8 -1.93 -0.64 C -1.93 -0.48 -1.93 -0.48 -1.6099999999999999 -0.48 C -0.9699999999999999 -0.48 -0.9699999999999999 -0.48 -0.9699999999999999 -0.31999999999999995 C -0.9699999999999999 -0.31999999999999995 -0.9699999999999999 -0.15999999999999995 -0.9699999999999999 5.551115123125783e-17 L -2.4099999999999997 5.61 C -2.57 5.930000000000001 -2.57 6.09 -3.3699999999999997 6.09 C -3.53 6.09 -3.6899999999999995 6.09 -3.6899999999999995 6.25 C -3.6899999999999995 6.41 -3.6899999999999995 6.41 -3.5299999999999994 6.41 C -3.369999999999999 6.41 -3.0499999999999994 6.41 -2.8899999999999992 6.41 L -1.4499999999999993 6.41 C -1.2899999999999994 6.41 -0.8099999999999993 6.41 -0.6399999999999992 6.41 C -0.6399999999999992 6.41 -0.4799999999999992 6.41 -0.4799999999999992 6.25 C -0.4799999999999992 6.09 -0.6399999999999992 6.09 -0.8099999999999992 6.09 C -0.9699999999999992 6.09 -1.1299999999999992 6.09 -1.2899999999999991 6.09 C -1.449999999999999 6.09 -1.6099999999999992 6.09 -1.6099999999999992 5.93 C -1.6099999999999992 5.93 -1.4499999999999993 5.93 -1.4499999999999993 5.77 z" stroke-linecap="round" />
</g>
		<g transform="matrix(1 0 0 1 112.75 -30.28)" clip-path="url(#CLIPPATH_32)"  >
<clipPath id="CLIPPATH_32" >
	<path transform="matrix(1 0 0 1 -118.58 134.24) translate(-396.88, -561.52)" d="M 0 0.48 L 0 1122.5601 L 793.76001 1122.5601 L 793.76001 0.48 Z" stroke-linecap="round" />
</clipPath>
<path style="stroke: rgb(0,0,0); stroke-width: 0.48; stroke-dasharray: none; stroke-linecap: butt; stroke-dashoffset: 0; stroke-linejoin: miter; stroke-miterlimit: 10; fill: none; fill-rule: nonzero; opacity: 1;" vector-effect="non-scaling-stroke"  transform=" translate(-509.71, -424.91)" d="M 506.82001 424.91 L 512.5900300000001 424.91" stroke-linecap="round" />
</g>
		<g transform="matrix(1 0 0 1 117.39 -31.4)" clip-path="url(#CLIPPATH_33)"  >
<clipPath id="CLIPPATH_33" >
	<path transform="matrix(1 0 0 1 -637.89 -287.78) translate(-396.88, -561.52)" d="M 0 0.48 L 0 1122.5601 L 793.76001 1122.5601 L 793.76001 0.48 Z" stroke-linecap="round" />
</clipPath>
<path style="stroke: none; stroke-width: 1; stroke-dasharray: none; stroke-linecap: butt; stroke-dashoffset: 0; stroke-linejoin: miter; stroke-miterlimit: 4; fill: rgb(0,0,0); fill-rule: nonzero; opacity: 1;" vector-effect="non-scaling-stroke"  transform=" translate(0.32, -0.64)" d="M 0 0 L 0.8 0 C 0.9600000000000001 0 1.12 0 1.12 -0.16 C 1.12 -0.32 1.12 -0.32 0.9600000000000001 -0.32 L 0.16000000000000003 -0.32 L 0.32000000000000006 -1.4400000000000002 C 0.32000000000000006 -1.6 0.32000000000000006 -1.6 0.32000000000000006 -1.6 C 0.32000000000000006 -1.76 0.32000000000000006 -1.9300000000000002 0.16000000000000006 -1.9300000000000002 C 5.551115123125783e-17 -1.9300000000000002 -0.15999999999999995 -1.7600000000000002 -0.31999999999999995 -1.6 L -0.6399999999999999 -0.32000000000000006 L -1.44 -0.32000000000000006 C -1.5999999999999999 -0.32000000000000006 -1.5999999999999999 -0.32000000000000006 -1.5999999999999999 -0.32000000000000006 C -1.5999999999999999 -0.32000000000000006 -1.7599999999999998 -0.16000000000000006 -1.7599999999999998 -0.16000000000000006 C -1.76 0 -1.6 0 -1.44 0 L -0.6399999999999999 0 L -1.1199999999999999 1.92 C -1.1199999999999999 2.08 -1.2799999999999998 2.2399999999999998 -1.2799999999999998 2.4 C -1.2799999999999998 2.88 -0.7999999999999998 3.2 -0.31999999999999984 3.2 C 0.6400000000000001 3.2 1.12 2.08 1.12 1.9200000000000002 C 1.12 1.9200000000000002 1.12 1.7600000000000002 0.9600000000000001 1.7600000000000002 C 0.8 1.76 0.8 1.92 0.8 1.92 C 0.48 2.56 0.16 2.88 -0.32 2.88 C -0.64 2.88 -0.64 2.56 -0.64 2.56 C -0.64 2.4 -0.64 2.4 -0.64 2.24 z" stroke-linecap="round" />
</g>
		<g transform="matrix(1 0 0 1 -137.67 12.15)" clip-path="url(#CLIPPATH_34)"  >
<clipPath id="CLIPPATH_34" >
	<path transform="matrix(1 0 0 1 131.84 91.81) translate(-396.88, -561.52)" d="M 0 0.48 L 0 1122.5601 L 793.76001 1122.5601 L 793.76001 0.48 Z" stroke-linecap="round" />
</clipPath>
<path style="stroke: rgb(0,0,0); stroke-width: 0.64; stroke-dasharray: none; stroke-linecap: butt; stroke-dashoffset: 0; stroke-linejoin: miter; stroke-miterlimit: 10; fill: none; fill-rule: nonzero; opacity: 1;" vector-effect="non-scaling-stroke"  transform=" translate(-259.29, -467.35)" d="M 265.78 440.76001 C 248.46999999999997 462.54001000000005 248.46999999999997 472.14999 265.78 493.92999000000003" stroke-linecap="round" />
</g>
		<g transform="matrix(1 0 0 1 -133.9 35.69)" clip-path="url(#CLIPPATH_35)"  >
<clipPath id="CLIPPATH_35" >
	<path transform="matrix(1 0 0 1 128.07 68.27) translate(-396.88, -561.52)" d="M 0 0.48 L 0 1122.5601 L 793.76001 1122.5601 L 793.76001 0.48 Z" stroke-linecap="round" />
</clipPath>
<path style="stroke: none; stroke-width: 1; stroke-dasharray: none; stroke-linecap: butt; stroke-dashoffset: 0; stroke-linejoin: miter; stroke-miterlimit: 4; fill: rgb(0,0,0); fill-rule: nonzero; opacity: 1;" vector-effect="non-scaling-stroke"  transform=" translate(-263.05, -490.88)" d="M 262.25 489.44 L 260.32999 491.20999 L 265.78000000000003 493.92999000000003 L 264.34000000000003 487.84000000000003 z" stroke-linecap="round" />
</g>
		<g transform="matrix(1 0 0 1 -133.9 35.69)" clip-path="url(#CLIPPATH_36)"  >
<clipPath id="CLIPPATH_36" >
	<path transform="matrix(1 0 0 1 128.07 68.27) translate(-396.88, -561.52)" d="M 0 0.48 L 0 1122.5601 L 793.76001 1122.5601 L 793.76001 0.48 Z" stroke-linecap="round" />
</clipPath>
<path style="stroke: rgb(0,0,0); stroke-width: 0.64; stroke-dasharray: none; stroke-linecap: butt; stroke-dashoffset: 0; stroke-linejoin: miter; stroke-miterlimit: 10; fill: none; fill-rule: nonzero; opacity: 1;" vector-effect="non-scaling-stroke"  transform=" translate(-263.05, -490.88)" d="M 262.25 489.44 L 260.32999 491.20999 L 265.78000000000003 493.92999000000003 L 264.34000000000003 487.84000000000003 L 262.25000000000006 489.44000000000005" stroke-linecap="round" />
</g>
		<g transform="matrix(1 0 0 1 -160.43 10.39)" clip-path="url(#CLIPPATH_37)"  >
<clipPath id="CLIPPATH_37" >
	<path transform="matrix(1 0 0 1 -84.43 -370.41) translate(-396.88, -561.52)" d="M 0 0.48 L 0 1122.5601 L 793.76001 1122.5601 L 793.76001 0.48 Z" stroke-linecap="round" />
</clipPath>
<path style="stroke: none; stroke-width: 1; stroke-dasharray: none; stroke-linecap: butt; stroke-dashoffset: 0; stroke-linejoin: miter; stroke-miterlimit: 4; fill: rgb(0,0,0); fill-rule: nonzero; opacity: 1;" vector-effect="non-scaling-stroke"  transform=" translate(2.48, -1.6)" d="M 0 0 C 0 -0.8 -0.48 -0.8 -0.64 -0.8 C -0.81 -0.8 -1.13 -0.48000000000000004 -1.13 -0.16000000000000003 C -1.13 -2.7755575615628914e-17 -0.9699999999999999 -2.7755575615628914e-17 -0.9699999999999999 0.15999999999999998 C -0.6399999999999999 0.31999999999999995 -0.47999999999999987 0.6399999999999999 -0.47999999999999987 0.96 C -0.47999999999999987 1.44 -1.29 3.69 -2.4099999999999997 3.69 C -2.8899999999999997 3.69 -3.3699999999999997 3.52 -3.3699999999999997 2.88 C -3.3699999999999997 2.2399999999999998 -3.05 1.44 -2.7299999999999995 0.7999999999999998 C -2.5699999999999994 0.4799999999999998 -2.5699999999999994 0.31999999999999984 -2.5699999999999994 0.1599999999999998 C -2.5699999999999994 -0.4800000000000002 -3.0499999999999994 -0.8000000000000002 -3.5299999999999994 -0.8000000000000002 C -4.6499999999999995 -0.8000000000000002 -4.969999999999999 0.7999999999999999 -4.969999999999999 0.9599999999999999 C -4.969999999999999 0.9599999999999999 -4.969999999999999 0.9599999999999999 -4.809999999999999 0.9599999999999999 C -4.649999999999999 0.9599999999999999 -4.649999999999999 0.9599999999999999 -4.649999999999999 0.7999999999999998 C -4.329999999999998 -2.220446049250313e-16 -4.009999999999999 -0.4800000000000002 -3.5299999999999985 -0.4800000000000002 C -3.3699999999999983 -0.4800000000000002 -3.3699999999999983 -0.3200000000000002 -3.3699999999999983 -0.1600000000000002 C -3.3699999999999983 0.1599999999999998 -3.3699999999999983 0.3199999999999998 -3.5299999999999985 0.6399999999999999 C -4.009999999999998 1.92 -4.009999999999998 2.4 -4.009999999999998 2.7199999999999998 C -4.009999999999998 3.8499999999999996 -3.209999999999998 4.01 -2.569999999999998 4.01 C -0.81 4.01 0 0.96 0 0 Z" stroke-linecap="round" />
</g>
		<g transform="matrix(1 0 0 1 -154.9 12.63)" clip-path="url(#CLIPPATH_38)"  >
<clipPath id="CLIPPATH_38" >
	<path transform="matrix(1 0 0 1 -93.47 -375.37) translate(-396.88, -561.52)" d="M 0 0.48 L 0 1122.5601 L 793.76001 1122.5601 L 793.76001 0.48 Z" stroke-linecap="round" />
</clipPath>
<path style="stroke: none; stroke-width: 1; stroke-dasharray: none; stroke-linecap: butt; stroke-dashoffset: 0; stroke-linejoin: miter; stroke-miterlimit: 4; fill: rgb(0,0,0); fill-rule: nonzero; opacity: 1;" vector-effect="non-scaling-stroke"  transform=" translate(0.48, -1.12)" d="M 0 0 L 0.96 0 C 1.1199999999999999 0 1.1199999999999999 0 1.1199999999999999 -0.16 C 1.1199999999999999 -0.32 1.1199999999999999 -0.32 0.9599999999999999 -0.32 L 0.1599999999999998 -0.32 C 0.31999999999999984 -1.6 0.31999999999999984 -1.6 0.4799999999999998 -1.76 C 0.4799999999999998 -1.92 0.4799999999999998 -2.08 0.6399999999999998 -2.08 C 0.6399999999999998 -2.24 0.7999999999999998 -2.24 0.7999999999999998 -2.24 C 0.9599999999999999 -2.24 1.1199999999999999 -2.24 1.2799999999999998 -2.24 C 1.1199999999999999 -2.08 0.9599999999999997 -1.9200000000000002 0.9599999999999997 -1.7600000000000002 C 0.9599999999999997 -1.6000000000000003 1.1199999999999997 -1.4400000000000002 1.2799999999999998 -1.4400000000000002 C 1.4399999999999997 -1.4400000000000002 1.7599999999999998 -1.6 1.7599999999999998 -1.9200000000000002 C 1.7599999999999998 -2.4000000000000004 1.2799999999999998 -2.56 0.7999999999999998 -2.56 C 0.4799999999999998 -2.56 -2.220446049250313e-16 -2.4 -0.3200000000000003 -1.6 C -0.3200000000000003 -1.28 -0.3200000000000003 -1.12 -0.4800000000000003 -0.9600000000000001 C -0.4800000000000003 -0.6400000000000001 -0.4800000000000003 -0.6400000000000001 -0.4800000000000003 -0.32000000000000006 L -1.1200000000000003 -0.32000000000000006 C -1.2800000000000002 -0.32000000000000006 -1.4400000000000004 -0.32000000000000006 -1.4400000000000004 -0.16000000000000006 C -1.44 0 -1.28 0 -1.12 0 L -0.6400000000000001 0 C -0.9600000000000002 1.77 -0.9600000000000002 2.41 -0.9600000000000002 2.57 C -1.2800000000000002 3.8499999999999996 -1.2800000000000002 4.01 -1.4400000000000002 4.17 C -1.4400000000000002 4.33 -1.6 4.49 -1.7600000000000002 4.49 C -1.9200000000000002 4.49 -2.08 4.49 -2.24 4.33 C -2.08 4.33 -1.9200000000000002 4.17 -1.9200000000000002 4.01 C -1.9200000000000002 3.8499999999999996 -2.08 3.69 -2.24 3.69 C -2.4000000000000004 3.69 -2.72 3.85 -2.72 4.17 C -2.72 4.65 -2.24 4.81 -1.9200000000000002 4.81 C -1.4400000000000002 4.81 -1.12 4.33 -0.9600000000000002 4.17 C -0.6400000000000001 3.69 -0.4800000000000002 2.73 -0.4800000000000002 2.73 z" stroke-linecap="round" />
</g>
		<g transform="matrix(1 0 0 1 140.39 12.15)" clip-path="url(#CLIPPATH_39)"  >
<clipPath id="CLIPPATH_39" >
	<path transform="matrix(1 0 0 1 -146.22 91.81) translate(-396.88, -561.52)" d="M 0 0.48 L 0 1122.5601 L 793.76001 1122.5601 L 793.76001 0.48 Z" stroke-linecap="round" />
</clipPath>
<path style="stroke: rgb(0,0,0); stroke-width: 0.64; stroke-dasharray: none; stroke-linecap: butt; stroke-dashoffset: 0; stroke-linejoin: miter; stroke-miterlimit: 10; fill: none; fill-rule: nonzero; opacity: 1;" vector-effect="non-scaling-stroke"  transform=" translate(-537.35, -467.35)" d="M 530.85998 440.76001 C 548.1699799999999 462.54001000000005 548.1699799999999 472.14999 530.85998 493.92999000000003" stroke-linecap="round" />
</g>
		<g transform="matrix(1 0 0 1 136.7 35.69)" clip-path="url(#CLIPPATH_40)"  >
<clipPath id="CLIPPATH_40" >
	<path transform="matrix(1 0 0 1 -142.54 68.27) translate(-396.88, -561.52)" d="M 0 0.48 L 0 1122.5601 L 793.76001 1122.5601 L 793.76001 0.48 Z" stroke-linecap="round" />
</clipPath>
<path style="stroke: none; stroke-width: 1; stroke-dasharray: none; stroke-linecap: butt; stroke-dashoffset: 0; stroke-linejoin: miter; stroke-miterlimit: 4; fill: rgb(0,0,0); fill-rule: nonzero; opacity: 1;" vector-effect="non-scaling-stroke"  transform=" translate(-533.66, -490.88)" d="M 534.39001 489.44 L 532.29999 487.84 L 530.85998 493.92999 L 536.46997 491.20998999999995 z" stroke-linecap="round" />
</g>
		<g transform="matrix(1 0 0 1 136.7 35.69)" clip-path="url(#CLIPPATH_41)"  >
<clipPath id="CLIPPATH_41" >
	<path transform="matrix(1 0 0 1 -142.54 68.27) translate(-396.88, -561.52)" d="M 0 0.48 L 0 1122.5601 L 793.76001 1122.5601 L 793.76001 0.48 Z" stroke-linecap="round" />
</clipPath>
<path style="stroke: rgb(0,0,0); stroke-width: 0.64; stroke-dasharray: none; stroke-linecap: butt; stroke-dashoffset: 0; stroke-linejoin: miter; stroke-miterlimit: 10; fill: none; fill-rule: nonzero; opacity: 1;" vector-effect="non-scaling-stroke"  transform=" translate(-533.66, -490.88)" d="M 534.39001 489.44 L 532.29999 487.84 L 530.85998 493.92999 L 536.46997 491.20998999999995 L 534.39001 489.43999999999994" stroke-linecap="round" />
</g>
		<g transform="matrix(1 0 0 1 156.9 11.51)" clip-path="url(#CLIPPATH_42)"  >
<clipPath id="CLIPPATH_42" >
	<path transform="matrix(1 0 0 1 -719.07 -372.65) translate(-396.88, -561.52)" d="M 0 0.48 L 0 1122.5601 L 793.76001 1122.5601 L 793.76001 0.48 Z" stroke-linecap="round" />
</clipPath>
<path style="stroke: none; stroke-width: 1; stroke-dasharray: none; stroke-linecap: butt; stroke-dashoffset: 0; stroke-linejoin: miter; stroke-miterlimit: 4; fill: rgb(0,0,0); fill-rule: nonzero; opacity: 1;" vector-effect="non-scaling-stroke"  transform=" translate(2.48, -1.6)" d="M 0 0 C 0 -0.8 -0.48 -0.8 -0.48 -0.8 C -0.64 -0.8 -0.96 -0.48000000000000004 -0.96 -0.32000000000000006 C -0.96 -0.16000000000000006 -0.96 -5.551115123125783e-17 -0.7999999999999999 -5.551115123125783e-17 C -0.6399999999999999 0.31999999999999995 -0.4799999999999999 0.6399999999999999 -0.4799999999999999 0.96 C -0.4799999999999999 1.44 -1.1199999999999999 3.69 -2.4 3.69 C -2.88 3.69 -3.2 3.37 -3.2 2.73 C -3.2 2.24 -2.8800000000000003 1.28 -2.56 0.6400000000000001 C -2.56 0.3200000000000001 -2.4 0.3200000000000001 -2.4 0.16000000000000014 C -2.4 -0.47999999999999987 -2.88 -0.7999999999999998 -3.36 -0.7999999999999998 C -4.49 -0.7999999999999998 -4.97 0.6400000000000001 -4.97 0.8000000000000003 C -4.97 0.9600000000000003 -4.81 0.9600000000000003 -4.81 0.9600000000000003 C -4.6499999999999995 0.9600000000000003 -4.6499999999999995 0.9600000000000003 -4.6499999999999995 0.8000000000000003 C -4.329999999999999 -0.1599999999999997 -3.8399999999999994 -0.47999999999999976 -3.5199999999999996 -0.47999999999999976 C -3.3599999999999994 -0.47999999999999976 -3.1999999999999997 -0.47999999999999976 -3.1999999999999997 -0.15999999999999975 C -3.1999999999999997 2.498001805406602e-16 -3.36 0.32000000000000023 -3.36 0.6400000000000003 C -3.84 1.9200000000000004 -4.01 2.24 -4.01 2.5700000000000003 C -4.01 3.8500000000000005 -3.04 4.01 -2.3999999999999995 4.01 C -0.64 4.01 0 0.8 0 0 Z" stroke-linecap="round" />
</g>
		<g transform="matrix(1 0 0 1 161.47 12.63)" clip-path="url(#CLIPPATH_43)"  >
<clipPath id="CLIPPATH_43" >
	<path transform="matrix(1 0 0 1 -726.05 -375.85) translate(-396.88, -561.52)" d="M 0 0.48 L 0 1122.5601 L 793.76001 1122.5601 L 793.76001 0.48 Z" stroke-linecap="round" />
</clipPath>
<path style="stroke: none; stroke-width: 1; stroke-dasharray: none; stroke-linecap: butt; stroke-dashoffset: 0; stroke-linejoin: miter; stroke-miterlimit: 4; fill: rgb(0,0,0); fill-rule: nonzero; opacity: 1;" vector-effect="non-scaling-stroke"  transform=" translate(0.32, -0.64)" d="M 0 0 L 0.96 0 C 1.1199999999999999 0 1.1199999999999999 0 1.1199999999999999 -0.16 C 1.1199999999999999 -0.32 1.1199999999999999 -0.32 0.9599999999999999 -0.32 L 0.16 -0.32 L 0.32 -1.44 C 0.48 -1.6 0.48 -1.6 0.48 -1.6 C 0.48 -1.76 0.31999999999999995 -1.9200000000000002 0.15999999999999998 -1.9200000000000002 C -2.7755575615628914e-17 -1.9200000000000002 -0.16000000000000003 -1.7600000000000002 -0.33 -1.6 L -0.49 -0.32000000000000006 L -1.45 -0.32000000000000006 C -1.6099999999999999 -0.32000000000000006 -1.6099999999999999 -0.32000000000000006 -1.6099999999999999 -0.32000000000000006 C -1.6099999999999999 -0.32000000000000006 -1.7699999999999998 -0.16000000000000006 -1.7699999999999998 -0.16000000000000006 C -1.61 0 -1.61 0 -1.45 0 L -0.6499999999999999 0 L -1.13 1.93 C -1.13 2.09 -1.2899999999999998 2.41 -1.2899999999999998 2.41 C -1.2899999999999998 2.89 -0.8099999999999998 3.21 -0.32999999999999985 3.21 C 0.6400000000000001 3.21 1.12 2.09 1.12 1.93 C 1.12 1.93 1.12 1.93 0.9600000000000001 1.93 C 0.9600000000000001 1.93 0.8 1.93 0.8 1.93 C 0.64 2.57 0.16000000000000003 2.8899999999999997 -0.32999999999999985 2.8899999999999997 C -0.6499999999999999 2.8899999999999997 -0.6499999999999999 2.7299999999999995 -0.6499999999999999 2.57 C -0.6499999999999999 2.4099999999999997 -0.6499999999999999 2.4099999999999997 -0.4899999999999999 2.25 z" stroke-linecap="round" />
</g>
		<g transform="matrix(1 0 0 1 1.36 49.95)" clip-path="url(#CLIPPATH_44)"  >
<clipPath id="CLIPPATH_44" >
	<path transform="matrix(1 0 0 1 -7.19 54.01) translate(-396.88, -561.52)" d="M 0 0.48 L 0 1122.5601 L 793.76001 1122.5601 L 793.76001 0.48 Z" stroke-linecap="round" />
</clipPath>
<path style="stroke: rgb(0,0,0); stroke-width: 0.64; stroke-dasharray: none; stroke-linecap: butt; stroke-dashoffset: 0; stroke-linejoin: miter; stroke-miterlimit: 10; fill: none; fill-rule: nonzero; opacity: 1;" vector-effect="non-scaling-stroke"  transform=" translate(-398.32, -505.14)" d="M 265.78 505.14001 L 398.32000999999997 505.14001 M 398.32000999999997 505.14001 L 530.85998 505.14001" stroke-linecap="round" />
</g>
		<g transform="matrix(1 0 0 1 -131.1 49.95)" clip-path="url(#CLIPPATH_45)"  >
<clipPath id="CLIPPATH_45" >
	<path transform="matrix(1 0 0 1 -142.75 -451.13) translate(-396.88, -561.52)" d="M 0 0.48 L 0 1122.5601 L 793.76001 1122.5601 L 793.76001 0.48 Z" stroke-linecap="round" />
</clipPath>
<path style="stroke: rgb(0,0,0); stroke-width: 0.64; stroke-dasharray: none; stroke-linecap: butt; stroke-dashoffset: 0; stroke-linejoin: miter; stroke-miterlimit: 10; fill: rgb(0,0,0); fill-rule: nonzero; opacity: 1;" vector-effect="non-scaling-stroke"  transform=" translate(2.16, 0)" d="M 0 0 C 0 -1.12 -0.96 -2.08 -2.24 -2.08 C -3.3600000000000003 -2.08 -4.32 -1.12 -4.32 0 C -4.32 1.28 -3.3600000000000003 2.08 -2.24 2.08 C -0.96 2.08 0 1.28 0 0 Z" stroke-linecap="round" />
</g>
		<g transform="matrix(1 0 0 1 133.9 49.95)" clip-path="url(#CLIPPATH_46)"  >
<clipPath id="CLIPPATH_46" >
	<path transform="matrix(1 0 0 1 -672.67 -451.13) translate(-396.88, -561.52)" d="M 0 0.48 L 0 1122.5601 L 793.76001 1122.5601 L 793.76001 0.48 Z" stroke-linecap="round" />
</clipPath>
<path style="stroke: rgb(0,0,0); stroke-width: 0.64; stroke-dasharray: none; stroke-linecap: butt; stroke-dashoffset: 0; stroke-linejoin: miter; stroke-miterlimit: 10; fill: rgb(0,0,0); fill-rule: nonzero; opacity: 1;" vector-effect="non-scaling-stroke"  transform=" translate(2.08, 0)" d="M 0 0 C 0 -1.12 -0.96 -2.08 -2.08 -2.08 C -3.2 -2.08 -4.16 -1.12 -4.16 0 C -4.16 1.28 -3.2 2.08 -2.08 2.08 C -0.96 2.08 0 1.28 0 0 Z" stroke-linecap="round" />
</g>
		<g transform="matrix(1 0 0 1 1.36 -25.64)" clip-path="url(#CLIPPATH_47)"  >
<clipPath id="CLIPPATH_47" >
	<path transform="matrix(1 0 0 1 -7.19 129.6) translate(-396.88, -561.52)" d="M 0 0.48 L 0 1122.5601 L 793.76001 1122.5601 L 793.76001 0.48 Z" stroke-linecap="round" />
</clipPath>
<path style="stroke: rgb(0,0,0); stroke-width: 0.64; stroke-dasharray: none; stroke-linecap: butt; stroke-dashoffset: 0; stroke-linejoin: miter; stroke-miterlimit: 10; fill: none; fill-rule: nonzero; opacity: 1;" vector-effect="non-scaling-stroke"  transform=" translate(-398.32, -429.55)" d="M 379.41 429.54999 L 398.32001 429.54999 M 398.32001 429.54999 L 417.23001000000005 429.54999" stroke-linecap="round" />
</g>
		<g transform="matrix(1 0 0 1 -138.63 -25.64)" clip-path="url(#CLIPPATH_48)"  >
<clipPath id="CLIPPATH_48" >
	<path transform="matrix(1 0 0 1 -126.25 -298.35) translate(-396.88, -561.52)" d="M 0 0.48 L 0 1122.5601 L 793.76001 1122.5601 L 793.76001 0.48 Z" stroke-linecap="round" />
</clipPath>
<path style="stroke: none; stroke-width: 1; stroke-dasharray: none; stroke-linecap: butt; stroke-dashoffset: 0; stroke-linejoin: miter; stroke-miterlimit: 4; fill: rgb(0,0,0); fill-rule: nonzero; opacity: 1;" vector-effect="non-scaling-stroke"  transform=" translate(0.73, -1.6)" d="M 0 0 L 0.96 0 C 1.1199999999999999 0 1.28 0 1.28 -0.16 C 1.28 -0.32 1.12 -0.32 0.96 -0.32 L 0 -0.32 C 0.16 -1.28 0.32 -1.9200000000000002 0.48 -2.4 C 0.48 -2.56 0.48 -2.7199999999999998 0.64 -2.88 C 0.8 -2.88 0.96 -2.88 0.96 -2.88 C 1.1199999999999999 -2.88 1.28 -2.88 1.44 -2.88 C 1.44 -2.88 1.44 -2.7199999999999998 1.28 -2.7199999999999998 C 1.12 -2.7199999999999998 0.96 -2.4 0.96 -2.2399999999999998 C 0.96 -2.0799999999999996 1.1199999999999999 -1.9199999999999997 1.44 -1.9199999999999997 C 1.76 -1.9199999999999997 2.08 -2.0799999999999996 2.08 -2.5599999999999996 C 2.08 -3.0399999999999996 1.44 -3.1999999999999997 0.96 -3.1999999999999997 C 0.6399999999999999 -3.1999999999999997 0 -3.0399999999999996 -0.32000000000000006 -2.0799999999999996 C -0.4800000000000001 -1.9199999999999997 -0.4800000000000001 -1.7599999999999996 -0.8 -0.3199999999999996 L -1.6 -0.3199999999999996 C -1.76 -0.3199999999999996 -1.9200000000000002 -0.3199999999999996 -1.9200000000000002 -0.15999999999999961 C -1.92 0 -1.76 0 -1.6 0 L -0.8 0 L -1.6 4.16 C -1.76 5.13 -1.9200000000000002 6.09 -2.56 6.09 C -2.56 6.09 -2.73 6.09 -3.05 5.93 C -2.4 5.93 -2.4 5.449999999999999 -2.4 5.449999999999999 C -2.4 5.129999999999999 -2.73 4.969999999999999 -2.8899999999999997 4.969999999999999 C -3.2099999999999995 4.969999999999999 -3.53 5.289999999999999 -3.53 5.6099999999999985 C -3.53 6.089999999999998 -3.05 6.409999999999998 -2.5599999999999996 6.409999999999998 C -1.9199999999999995 6.409999999999998 -1.4399999999999995 5.769999999999999 -1.2799999999999996 5.449999999999998 C -0.9599999999999995 4.799999999999998 -0.6399999999999996 3.3599999999999985 -0.6399999999999996 3.3599999999999985 z" stroke-linecap="round" />
</g>
		<g transform="matrix(1 0 0 1 141.43 -25.63)" clip-path="url(#CLIPPATH_49)"  >
<clipPath id="CLIPPATH_49" >
	<path transform="matrix(1 0 0 1 -685.97 -298.99) translate(-396.88, -561.52)" d="M 0 0.48 L 0 1122.5601 L 793.76001 1122.5601 L 793.76001 0.48 Z" stroke-linecap="round" />
</clipPath>
<path style="stroke: none; stroke-width: 1; stroke-dasharray: none; stroke-linecap: butt; stroke-dashoffset: 0; stroke-linejoin: miter; stroke-miterlimit: 4; fill: rgb(0,0,0); fill-rule: nonzero; opacity: 1;" vector-effect="non-scaling-stroke"  transform=" translate(0.32, -0.97)" d="M 0 0 L 0.96 0 C 1.28 0 1.44 0 1.44 -0.16 C 1.44 -0.32 1.28 -0.32 1.1199999999999999 -0.32 L 0.16 -0.32 L 0.48 -1.9200000000000002 C 0.48 -2.08 0.48 -2.08 0.48 -2.08 C 0.48 -2.4 0.31999999999999995 -2.4 0.15999999999999998 -2.4 C -0.16000000000000003 -2.4 -0.32 -2.08 -0.32 -1.5999999999999999 L -0.8 -0.31999999999999984 L -1.76 -0.31999999999999984 C -1.92 -0.31999999999999984 -2.08 -0.31999999999999984 -2.08 -0.15999999999999984 C -2.08 0 -1.92 0 -1.76 0 L -0.8 0 L -1.44 2.56 C -1.44 2.72 -1.5999999999999999 3.2 -1.5999999999999999 3.3600000000000003 C -1.5999999999999999 4 -1.1199999999999999 4.33 -0.47999999999999976 4.33 C 0.6400000000000003 4.33 1.2800000000000002 2.88 1.2800000000000002 2.7199999999999998 C 1.2800000000000002 2.5599999999999996 1.1200000000000003 2.5599999999999996 1.1200000000000003 2.5599999999999996 C 0.9600000000000003 2.5599999999999996 0.9600000000000003 2.5599999999999996 0.9600000000000003 2.7199999999999998 C 0.64 3.2 0.16 4 -0.48 4 C -0.64 4 -0.8 3.84 -0.8 3.52 C -0.8 3.36 -0.8 3.2 -0.8 3.04 z" stroke-linecap="round" />
</g>
		<g transform="matrix(1 0 0 1 55.69 -38.53)" clip-path="url(#CLIPPATH_50)"  >
<clipPath id="CLIPPATH_50" >
	<path transform="matrix(1 0 0 1 -517.7 -270.89) translate(-396.88, -561.52)" d="M 0 0.48 L 0 1122.5601 L 793.76001 1122.5601 L 793.76001 0.48 Z" stroke-linecap="round" />
</clipPath>
<path style="stroke: none; stroke-width: 1; stroke-dasharray: none; stroke-linecap: butt; stroke-dashoffset: 0; stroke-linejoin: miter; stroke-miterlimit: 4; fill: rgb(0,0,0); fill-rule: nonzero; opacity: 1;" vector-effect="non-scaling-stroke"  transform=" translate(3.53, -3.28)" d="M 0 0 C 0 0 0.16 -0.16 0.16 -0.32 C 0.16 -0.32 0 -0.32 -0.16 -0.32 L -4.97 -0.32 C -5.13 -0.32 -5.13 -0.32 -5.29 -0.16 L -5.93 1.76 C -5.93 1.76 -5.93 1.92 -5.93 1.92 C -5.93 1.92 -5.93 2.08 -5.77 2.08 C -5.609999999999999 2.08 -5.609999999999999 2.08 -5.449999999999999 1.76 C -4.97 0.32 -4.17 0 -2.89 0 L -1.1300000000000001 0 L -7.06 6.56 C -7.22 6.56 -7.22 6.72 -7.22 6.72 C -7.22 6.88 -7.22 6.88 -7.06 6.88 L -2.09 6.88 C -1.7699999999999998 6.88 -1.7699999999999998 6.88 -1.7699999999999998 6.72 L -0.9699999999999998 4.32 C -0.9699999999999998 4.16 -0.9699999999999998 4.16 -0.9699999999999998 4.16 C -0.9699999999999998 4.16 -0.9699999999999998 4 -1.1299999999999997 4 C -1.1299999999999997 4 -1.1299999999999997 4 -1.1299999999999997 4.16 C -1.2899999999999996 4.16 -1.2899999999999996 4.16 -1.2899999999999996 4.16 C -1.2899999999999996 4.16 -1.2899999999999996 4.16 -1.2899999999999996 4.48 C -1.7699999999999996 5.92 -2.4099999999999997 6.5600000000000005 -4.17 6.5600000000000005 L -6.09 6.5600000000000005 z" stroke-linecap="round" />
</g>
		<g transform="matrix(1 0 0 1 55.53 -33.16)" clip-path="url(#CLIPPATH_51)"  >
<clipPath id="CLIPPATH_51" >
	<path transform="matrix(1 0 0 1 -61.36 137.12) translate(-396.88, -561.52)" d="M 0 0.48 L 0 1122.5601 L 793.76001 1122.5601 L 793.76001 0.48 Z" stroke-linecap="round" />
</clipPath>
<path style="stroke: rgb(0,0,0); stroke-width: 0.48; stroke-dasharray: none; stroke-linecap: butt; stroke-dashoffset: 0; stroke-linejoin: miter; stroke-miterlimit: 10; fill: none; fill-rule: nonzero; opacity: 1;" vector-effect="non-scaling-stroke"  transform=" translate(-452.49, -422.03)" d="M 448.32001 422.03 L 456.66 422.03" stroke-linecap="round" />
</g>
		<g transform="matrix(1 0 0 1 62.02 -33.56)" clip-path="url(#CLIPPATH_52)"  >
<clipPath id="CLIPPATH_52" >
	<path transform="matrix(1 0 0 1 -528.19 -282.73) translate(-396.88, -561.52)" d="M 0 0.48 L 0 1122.5601 L 793.76001 1122.5601 L 793.76001 0.48 Z" stroke-linecap="round" />
</clipPath>
<path style="stroke: none; stroke-width: 1; stroke-dasharray: none; stroke-linecap: butt; stroke-dashoffset: 0; stroke-linejoin: miter; stroke-miterlimit: 4; fill: rgb(0,0,0); fill-rule: nonzero; opacity: 1;" vector-effect="non-scaling-stroke"  transform=" translate(1.36, -1.37)" d="M 0 0 C -0.32 0.16 -0.32 0.32 -0.32 0.48 C -0.32 0.64 -0.32 0.64 0 0.64 C 0.16 0.64 0.32 0.64 0.32 0.32 C 0.32 -0.32 -0.32 -0.48000000000000004 -0.8 -0.48000000000000004 C -2.08 -0.48000000000000004 -2.4000000000000004 0.32 -2.4000000000000004 0.6400000000000001 C -2.4000000000000004 1.29 -1.6000000000000003 1.4500000000000002 -1.4400000000000004 1.4500000000000002 C -0.8000000000000004 1.61 -0.3200000000000003 1.7700000000000002 -0.3200000000000003 2.0900000000000003 C -0.3200000000000003 2.2500000000000004 -0.4800000000000003 2.5700000000000003 -0.8000000000000003 2.7300000000000004 C -1.1200000000000003 2.8900000000000006 -1.4400000000000004 2.8900000000000006 -1.6000000000000003 2.8900000000000006 C -1.9200000000000004 2.8900000000000006 -2.4000000000000004 2.8900000000000006 -2.5600000000000005 2.5700000000000007 C -2.4000000000000004 2.5700000000000007 -2.2400000000000007 2.4100000000000006 -2.2400000000000007 2.0900000000000007 C -2.2400000000000007 1.9300000000000008 -2.400000000000001 1.7700000000000007 -2.5600000000000005 1.7700000000000007 C -2.7200000000000006 1.7700000000000007 -3.0400000000000005 2.0900000000000007 -3.0400000000000005 2.4100000000000006 C -3.0400000000000005 2.8900000000000006 -2.5600000000000005 3.210000000000001 -1.6000000000000005 3.210000000000001 C -0.1600000000000006 3.210000000000001 0.15999999999999948 2.250000000000001 0.15999999999999948 1.9300000000000008 C 0.16 1.61 0 1.45 -0.16 1.29 C -0.32 0.96 -0.64 0.96 -1.12 0.96 C -1.44 0.8 -1.76 0.8 -1.76 0.48 C -1.76 0.48 -1.76 -0.16000000000000003 -0.8 -0.16000000000000003 C -0.64 -0.16000000000000003 -0.16000000000000003 -0.16000000000000003 0 -2.7755575615628914e-17 z" stroke-linecap="round" />
</g>
		<g transform="matrix(1 0 0 1 -118.36 11.52)" clip-path="url(#CLIPPATH_53)"  >
<clipPath id="CLIPPATH_53" >
	<path transform="matrix(1 0 0 1 -169.92 -370.73) translate(-396.88, -561.52)" d="M 0 0.48 L 0 1122.5601 L 793.76001 1122.5601 L 793.76001 0.48 Z" stroke-linecap="round" />
</clipPath>
<path style="stroke: none; stroke-width: 1; stroke-dasharray: none; stroke-linecap: butt; stroke-dashoffset: 0; stroke-linejoin: miter; stroke-miterlimit: 4; fill: rgb(0,0,0); fill-rule: nonzero; opacity: 1;" vector-effect="non-scaling-stroke"  transform=" translate(3.85, -3.52)" d="M 0 0 C 0 -0.16 0.16 -0.16 0.16 -0.16 C 0.16 -0.32 0 -0.32 0 -0.32 C -0.16 -0.32 -0.16 -0.32 -0.16 -0.16 L -0.9600000000000001 0.64 C -1.44 0 -2.25 -0.32 -2.89 -0.32 C -5.45 -0.32 -7.859999999999999 1.9200000000000002 -7.859999999999999 4.319999999999999 C -7.859999999999999 6.09 -6.569999999999999 7.369999999999999 -4.81 7.369999999999999 C -3.5299999999999994 7.369999999999999 -2.7299999999999995 6.889999999999999 -2.4099999999999997 6.569999999999999 C -2.2499999999999996 6.89 -1.9299999999999997 7.209999999999999 -1.9299999999999997 7.209999999999999 C -1.7599999999999998 7.209999999999999 -1.7599999999999998 7.049999999999999 -1.7599999999999998 7.049999999999999 C -1.5999999999999999 6.889999999999999 -1.4399999999999997 5.769999999999999 -1.2799999999999998 5.449999999999999 C -1.2799999999999998 5.129999999999999 -1.1199999999999999 4.81 -1.1199999999999999 4.6499999999999995 C -0.9599999999999999 4.6499999999999995 -0.7999999999999998 4.489999999999999 -0.47999999999999987 4.489999999999999 C -0.47999999999999987 4.489999999999999 -0.31999999999999984 4.489999999999999 -0.31999999999999984 4.319999999999999 C -0.31999999999999984 4.319999999999999 -0.31999999999999984 4.159999999999999 -0.47999999999999987 4.159999999999999 C -0.47999999999999987 4.159999999999999 -0.6399999999999999 4.159999999999999 -1.6 4.159999999999999 C -1.9300000000000002 4.159999999999999 -2.25 4.159999999999999 -2.41 4.159999999999999 C -2.5700000000000003 4.159999999999999 -3.0500000000000003 4.159999999999999 -3.21 4.159999999999999 C -3.21 4.159999999999999 -3.37 4.159999999999999 -3.37 4.489999999999999 C -3.37 4.489999999999999 -3.37 4.489999999999999 -3.0500000000000003 4.489999999999999 C -2.7300000000000004 4.489999999999999 -2.41 4.489999999999999 -2.0900000000000003 4.6499999999999995 C -2.0900000000000003 4.6499999999999995 -2.0900000000000003 4.81 -2.0900000000000003 4.81 C -2.0900000000000003 4.81 -2.2500000000000004 5.13 -2.2500000000000004 5.289999999999999 C -2.2500000000000004 5.449999999999999 -2.4100000000000006 5.929999999999999 -2.4100000000000006 6.089999999999999 C -2.7300000000000004 6.729999999999999 -3.8500000000000005 7.049999999999999 -4.49 7.049999999999999 C -5.61 7.049999999999999 -6.890000000000001 6.409999999999999 -6.890000000000001 4.809999999999999 C -6.890000000000001 3.839999999999999 -6.41 2.239999999999999 -5.61 1.279999999999999 C -4.49 0.16 -3.37 0 -2.89 0 C -1.4400000000000002 0 -0.9600000000000002 0.96 -0.9600000000000002 2.08 C -0.9600000000000002 2.24 -0.9600000000000002 2.4 -0.9600000000000002 2.56 C -0.9600000000000002 2.72 -0.8000000000000002 2.72 -0.8000000000000002 2.72 C -0.6400000000000001 2.72 -0.6400000000000001 2.72 -0.6400000000000001 2.4000000000000004 z" stroke-linecap="round" />
</g>
		<g transform="matrix(1 0 0 1 -111.78 14.72)" clip-path="url(#CLIPPATH_54)"  >
<clipPath id="CLIPPATH_54" >
	<path transform="matrix(1 0 0 1 -180.5 -379.39) translate(-396.88, -561.52)" d="M 0 0.48 L 0 1122.5601 L 793.76001 1122.5601 L 793.76001 0.48 Z" stroke-linecap="round" />
</clipPath>
<path style="stroke: none; stroke-width: 1; stroke-dasharray: none; stroke-linecap: butt; stroke-dashoffset: 0; stroke-linejoin: miter; stroke-miterlimit: 4; fill: rgb(0,0,0); fill-rule: nonzero; opacity: 1;" vector-effect="non-scaling-stroke"  transform=" translate(1.27, -1.28)" d="M 0 0 C -0.16 0.16 -0.32 0.32 -0.32 0.48 C -0.32 0.48 -0.16 0.64 0 0.64 C 0.16 0.64 0.33 0.48 0.33 0.16000000000000003 C 0.33 -0.31999999999999995 -0.15999999999999998 -0.48 -0.7999999999999998 -0.48 C -1.92 -0.48 -2.2399999999999998 0.32000000000000006 -2.2399999999999998 0.6400000000000001 C -2.2399999999999998 1.2800000000000002 -1.5999999999999996 1.4400000000000002 -1.2799999999999998 1.4400000000000002 C -0.7999999999999998 1.6 -0.31999999999999984 1.6 -0.31999999999999984 2.08 C -0.31999999999999984 2.24 -0.31999999999999984 2.56 -0.6399999999999999 2.72 C -0.96 2.8800000000000003 -1.2799999999999998 2.8800000000000003 -1.5999999999999999 2.8800000000000003 C -1.92 2.8800000000000003 -2.4 2.8800000000000003 -2.5599999999999996 2.5600000000000005 C -2.2399999999999998 2.5600000000000005 -2.0799999999999996 2.2400000000000007 -2.0799999999999996 2.0800000000000005 C -2.0799999999999996 1.9200000000000006 -2.2399999999999998 1.7600000000000005 -2.5599999999999996 1.7600000000000005 C -2.7199999999999998 1.7600000000000005 -2.8799999999999994 1.9200000000000004 -2.8799999999999994 2.4000000000000004 C -2.8799999999999994 2.72 -2.5599999999999996 3.0400000000000005 -1.5999999999999994 3.0400000000000005 C -0.15999999999999948 3.0400000000000005 0.1600000000000006 2.24 0.1600000000000006 1.7600000000000005 C 0.16 1.6 0.16 1.44 0 1.28 C -0.32 0.96 -0.64 0.96 -0.96 0.8 C -1.44 0.8 -1.76 0.8 -1.76 0.48000000000000004 C -1.76 0.48000000000000004 -1.76 -0.15999999999999998 -0.8 -0.15999999999999998 C -0.48000000000000004 -0.15999999999999998 -0.16000000000000003 -0.15999999999999998 0 2.7755575615628914e-17 z" stroke-linecap="round" />
</g>
		<g transform="matrix(1 0 0 1 -105.86 14.72)" clip-path="url(#CLIPPATH_55)"  >
<clipPath id="CLIPPATH_55" >
	<path transform="matrix(1 0 0 1 -189.96 -379.87) translate(-396.88, -561.52)" d="M 0 0.48 L 0 1122.5601 L 793.76001 1122.5601 L 793.76001 0.48 Z" stroke-linecap="round" />
</clipPath>
<path style="stroke: none; stroke-width: 1; stroke-dasharray: none; stroke-linecap: butt; stroke-dashoffset: 0; stroke-linejoin: miter; stroke-miterlimit: 4; fill: rgb(0,0,0); fill-rule: nonzero; opacity: 1;" vector-effect="non-scaling-stroke"  transform=" translate(-1.12, -0.8)" d="M 0 0 C 0 -0.16 0 -0.16 0 -0.32 C 0 -0.8 -0.32 -0.96 -0.8 -0.96 C -1.6 -0.96 -1.9200000000000002 0.16000000000000014 -1.9200000000000002 0.32000000000000006 C -1.9200000000000002 0.32000000000000006 -1.9200000000000002 0.32000000000000006 -1.9200000000000002 0.32000000000000006 C -1.7600000000000002 0.32000000000000006 -1.7600000000000002 0.32000000000000006 -1.7600000000000002 0.32000000000000006 C -1.4400000000000002 -0.48 -1.12 -0.6399999999999999 -0.8000000000000003 -0.6399999999999999 C -0.6400000000000002 -0.6399999999999999 -0.6400000000000002 -0.6399999999999999 -0.6400000000000002 -0.47999999999999987 C -0.6400000000000002 -0.31999999999999984 -0.6400000000000002 1.1102230246251565e-16 -0.8000000000000003 0.16000000000000014 C -1.1200000000000003 0.9600000000000002 -1.1200000000000003 1.2800000000000002 -1.1200000000000003 1.6 C -1.1200000000000003 2.24 -0.4800000000000003 2.56 0.1599999999999997 2.56 C 0.31999999999999973 2.56 0.7999999999999997 2.56 1.1199999999999997 2.08 L 1.1199999999999997 2.08 C 1.2799999999999996 2.24 1.5999999999999996 2.56 2.2399999999999998 2.56 C 3.8499999999999996 2.56 4.17 0 4.17 -0.31999999999999984 C 4.17 -0.9599999999999999 3.85 -0.9599999999999999 3.69 -0.9599999999999999 C 3.53 -0.9599999999999999 3.21 -0.7999999999999998 3.21 -0.47999999999999987 C 3.21 -0.31999999999999984 3.37 -0.31999999999999984 3.37 -0.31999999999999984 C 3.69 -0.15999999999999984 3.69 0.16000000000000014 3.69 0.3200000000000002 C 3.69 0.48 3.37 2.4 2.4 2.4 C 1.6 2.4 1.6 1.76 1.6 1.6 C 1.6 1.44 1.76 1.12 1.76 0.96 L 1.92 0.15999999999999992 L 2.08 -0.32000000000000006 C 2.08 -0.4800000000000001 2.24 -0.6400000000000001 2.24 -0.6400000000000001 C 2.24 -0.8000000000000002 2.08 -0.9600000000000002 1.9200000000000002 -0.9600000000000002 C 1.6 -0.9600000000000002 1.6 -0.6400000000000001 1.4400000000000002 -0.3200000000000002 C 1.4400000000000002 -0.16000000000000017 1.12 0.9599999999999999 1.12 1.1199999999999997 C 1.12 1.2799999999999996 0.9600000000000001 1.4399999999999997 0.9600000000000001 1.5999999999999996 C 0.9600000000000001 1.5999999999999996 0.9600000000000001 1.5999999999999996 0.9600000000000001 1.7599999999999996 C 0.8 2.24 0.48 2.4 0.16 2.4 C -0.31999999999999995 2.4 -0.48 2.08 -0.48 1.5999999999999999 C -0.48 1.2799999999999998 -0.48 0.9599999999999999 -0.15999999999999998 0.31999999999999984 z" stroke-linecap="round" />
</g>
		<g transform="matrix(1 0 0 1 -46.32 11.91)" clip-path="url(#CLIPPATH_56)"  >
<clipPath id="CLIPPATH_56" >
	<path transform="matrix(1 0 0 1 -312.47 -370.81) translate(-396.88, -561.52)" d="M 0 0.48 L 0 1122.5601 L 793.76001 1122.5601 L 793.76001 0.48 Z" stroke-linecap="round" />
</clipPath>
<path style="stroke: none; stroke-width: 1; stroke-dasharray: none; stroke-linecap: butt; stroke-dashoffset: 0; stroke-linejoin: miter; stroke-miterlimit: 4; fill: rgb(0,0,0); fill-rule: nonzero; opacity: 1;" vector-effect="non-scaling-stroke"  transform=" translate(2.32, -4.25)" d="M 0 0 C 0 -0.16 -0.16 -0.32 -0.48 -0.32 C -0.8 -0.32 -1.12 0 -1.12 0.15999999999999998 C -1.12 0.48 -0.9600000000000001 0.6399999999999999 -0.6400000000000001 0.6399999999999999 C -0.32 0.64 0 0.32 0 0 Z M -2.24 7.21 C -2.4000000000000004 7.85 -2.8800000000000003 8.49 -3.68 8.49 C -3.8400000000000003 8.49 -4 8.49 -4 8.49 C -3.68 8.33 -3.52 8.01 -3.52 8.01 C -3.52 7.6899999999999995 -3.84 7.529999999999999 -4 7.529999999999999 C -4.32 7.529999999999999 -4.64 7.85 -4.64 8.17 C -4.64 8.65 -4.16 8.81 -3.5199999999999996 8.81 C -2.8799999999999994 8.81 -1.7599999999999996 8.49 -1.4399999999999995 7.210000000000001 L -0.47999999999999954 3.3600000000000008 C -0.47999999999999954 3.2000000000000006 -0.47999999999999954 3.2000000000000006 -0.47999999999999954 3.040000000000001 C -0.47999999999999954 2.400000000000001 -0.9599999999999995 1.9200000000000008 -1.5999999999999996 1.9200000000000008 C -2.7199999999999998 1.9200000000000008 -3.3599999999999994 3.520000000000001 -3.3599999999999994 3.6800000000000006 C -3.3599999999999994 3.6800000000000006 -3.1999999999999993 3.6800000000000006 -3.1999999999999993 3.6800000000000006 C -3.039999999999999 3.6800000000000006 -3.039999999999999 3.6800000000000006 -2.8799999999999994 3.5200000000000005 C -2.5599999999999996 2.8800000000000003 -2.079999999999999 2.24 -1.5999999999999994 2.24 C -1.2799999999999994 2.24 -1.2799999999999994 2.4000000000000004 -1.2799999999999994 2.72 C -1.2799999999999994 2.8800000000000003 -1.2799999999999994 3.04 -1.2799999999999994 3.2 z" stroke-linecap="round" />
</g>
		<g transform="matrix(1 0 0 1 -38.78 10.71)" clip-path="url(#CLIPPATH_57)"  >
<clipPath id="CLIPPATH_57" >
	<path transform="matrix(1 0 0 1 -322.58 -375.38) translate(-396.88, -561.52)" d="M 0 0.48 L 0 1122.5601 L 793.76001 1122.5601 L 793.76001 0.48 Z" stroke-linecap="round" />
</clipPath>
<path style="stroke: none; stroke-width: 1; stroke-dasharray: none; stroke-linecap: butt; stroke-dashoffset: 0; stroke-linejoin: miter; stroke-miterlimit: 4; fill: rgb(0,0,0); fill-rule: nonzero; opacity: 1;" vector-effect="non-scaling-stroke"  transform=" translate(-2.65, 2.73)" d="M 0 0 C -0.16 0.48 -0.16 0.64 -0.96 0.64 C -1.1199999999999999 0.64 -1.28 0.64 -1.28 0.8 C -1.28 0.9600000000000001 -1.12 0.9600000000000001 -0.96 0.9600000000000001 L 3.04 0.9600000000000001 C 4.8100000000000005 0.9600000000000001 6.09 -0.31999999999999995 6.09 -1.29 C 6.09 -2.09 5.45 -2.73 4.33 -2.89 C 5.61 -3.0500000000000003 6.57 -3.85 6.57 -4.8100000000000005 C 6.57 -5.61 5.930000000000001 -6.41 4.49 -6.41 L 0.8 -6.41 C 0.64 -6.41 0.48000000000000004 -6.41 0.48000000000000004 -6.09 C 0.48000000000000004 -5.93 0.64 -5.93 0.8 -5.93 C 1.12 -5.93 1.44 -5.93 1.44 -5.77 C 1.44 -5.77 1.44 -5.77 1.44 -5.609999999999999 z M 1.6 -3.05 L 2.24 -5.61 C 2.4 -5.93 2.4 -5.93 2.88 -5.93 L 4.33 -5.93 C 5.45 -5.93 5.61 -5.29 5.61 -4.81 C 5.61 -4.01 4.65 -3.05 3.3600000000000003 -3.05 z M 0.96 0.64 C 0.8 0.48 0.8 0.48 0.8 0.48 C 0.8 0.31999999999999995 0.8 0.31999999999999995 0.8 0.31999999999999995 L 1.6 -2.73 L 3.69 -2.73 C 4.65 -2.73 4.97 -2.09 4.97 -1.45 C 4.97 -0.32000000000000006 4.01 0.6399999999999999 2.7199999999999998 0.6399999999999999 z" stroke-linecap="round" />
</g>
		<g transform="matrix(1 0 0 1 -32.3 14)" clip-path="url(#CLIPPATH_58)"  >
<clipPath id="CLIPPATH_58" >
	<path transform="matrix(1 0 0 1 -337.56 -379.14) translate(-396.88, -561.52)" d="M 0 0.48 L 0 1122.5601 L 793.76001 1122.5601 L 793.76001 0.48 Z" stroke-linecap="round" />
</clipPath>
<path style="stroke: none; stroke-width: 1; stroke-dasharray: none; stroke-linecap: butt; stroke-dashoffset: 0; stroke-linejoin: miter; stroke-miterlimit: 4; fill: rgb(0,0,0); fill-rule: nonzero; opacity: 1;" vector-effect="non-scaling-stroke"  transform=" translate(-0.64, -0.07)" d="M 0 0 C 0.48 0 1.12 0 1.45 -0.16 C 2.25 -0.48 2.25 -0.9600000000000001 2.25 -0.9600000000000001 C 2.25 -1.44 1.93 -1.77 1.12 -1.77 C 0.16000000000000014 -1.77 -1.12 -1.12 -1.12 0.31999999999999984 C -1.12 1.1199999999999999 -0.6400000000000001 1.92 0.31999999999999984 1.92 C 1.93 1.92 2.4099999999999997 1.1199999999999999 2.4099999999999997 0.96 C 2.4099999999999997 0.96 2.4099999999999997 0.7999999999999999 2.2499999999999996 0.7999999999999999 C 2.2499999999999996 0.7999999999999999 2.2499999999999996 0.7999999999999999 2.0899999999999994 0.96 C 1.61 1.44 0.8 1.6 0.48 1.6 C -0.16000000000000003 1.6 -0.48 1.12 -0.48 0.6400000000000001 C -0.48 0.4800000000000001 -0.48 0.3200000000000001 -0.31999999999999995 1.1102230246251565e-16 z M -0.32 -0.32 C 0 -1.28 0.8 -1.44 1.12 -1.44 C 1.61 -1.44 1.9300000000000002 -1.28 1.9300000000000002 -0.96 C 1.9300000000000002 -0.31999999999999995 0.4800000000000002 -0.31999999999999995 -0.31999999999999984 -0.31999999999999995 z" stroke-linecap="round" />
</g>
		<g transform="matrix(1 0 0 1 -27.57 14.71)" clip-path="url(#CLIPPATH_59)"  >
<clipPath id="CLIPPATH_59" >
	<path transform="matrix(1 0 0 1 -349.49 -378.25) translate(-396.88, -561.52)" d="M 0 0.48 L 0 1122.5601 L 793.76001 1122.5601 L 793.76001 0.48 Z" stroke-linecap="round" />
</clipPath>
<path style="stroke: none; stroke-width: 1; stroke-dasharray: none; stroke-linecap: butt; stroke-dashoffset: 0; stroke-linejoin: miter; stroke-miterlimit: 4; fill: rgb(0,0,0); fill-rule: nonzero; opacity: 1;" vector-effect="non-scaling-stroke"  transform=" translate(1.84, -2.41)" d="M 0 0 C 0 0 0 -0.16 0 -0.16 C -0.16 -0.16 -0.48 0.17 -0.64 0.32999999999999996 C -0.8 0.16999999999999996 -1.12 -0.16000000000000003 -1.6 -0.16000000000000003 C -2.56 -0.16000000000000003 -3.68 0.9699999999999999 -3.68 2.09 C -3.68 3.05 -3.04 3.53 -2.4000000000000004 3.53 C -2.0800000000000005 3.53 -1.6000000000000003 3.21 -1.4400000000000004 3.05 C -1.4400000000000004 3.05 -1.6000000000000003 4.01 -1.6000000000000003 4.17 C -1.7600000000000002 4.65 -1.7600000000000002 4.65 -2.24 4.65 C -2.4000000000000004 4.65 -2.56 4.65 -2.56 4.8100000000000005 C -2.56 4.8100000000000005 -2.4 4.970000000000001 -2.4 4.970000000000001 C -2.2399999999999998 4.970000000000001 -1.7599999999999998 4.970000000000001 -1.44 4.970000000000001 C -1.44 4.970000000000001 -1.28 4.970000000000001 -1.1199999999999999 4.970000000000001 C -0.9599999999999999 4.970000000000001 -0.7999999999999998 4.970000000000001 -0.6399999999999999 4.970000000000001 C -0.6399999999999999 4.970000000000001 -0.47999999999999987 4.970000000000001 -0.47999999999999987 4.65 C -0.47999999999999987 4.65 -0.47999999999999987 4.65 -0.6399999999999999 4.65 C -0.7999999999999999 4.65 -1.1199999999999999 4.65 -1.1199999999999999 4.49 C -1.1199999999999999 4.49 -1.1199999999999999 4.49 -0.9599999999999999 4.33 z M -1.12 2.41 C -1.28 2.41 -1.28 2.5700000000000003 -1.4400000000000002 2.5700000000000003 C -1.7600000000000002 3.0500000000000003 -2.08 3.2100000000000004 -2.4000000000000004 3.2100000000000004 C -2.72 3.2100000000000004 -3.0400000000000005 2.8900000000000006 -3.0400000000000005 2.41 C -3.0400000000000005 2.0900000000000003 -2.8800000000000003 1.29 -2.5600000000000005 0.81 C -2.2400000000000007 0.33000000000000007 -1.9200000000000004 0.17000000000000004 -1.6000000000000005 0.17000000000000004 C -0.9600000000000005 0.17000000000000004 -0.8000000000000005 0.81 -0.8000000000000005 0.81 L -0.8000000000000005 0.9700000000000001 z" stroke-linecap="round" />
</g>
		<g transform="matrix(1 0 0 1 31.01 12.71)" clip-path="url(#CLIPPATH_60)"  >
<clipPath id="CLIPPATH_60" >
	<path transform="matrix(1 0 0 1 -467.05 -372.41) translate(-396.88, -561.52)" d="M 0 0.48 L 0 1122.5601 L 793.76001 1122.5601 L 793.76001 0.48 Z" stroke-linecap="round" />
</clipPath>
<path style="stroke: none; stroke-width: 1; stroke-dasharray: none; stroke-linecap: butt; stroke-dashoffset: 0; stroke-linejoin: miter; stroke-miterlimit: 4; fill: rgb(0,0,0); fill-rule: nonzero; opacity: 1;" vector-effect="non-scaling-stroke"  transform=" translate(2.24, -4.25)" d="M 0 0 C 0 -0.16 -0.16 -0.32 -0.48 -0.32 C -0.8 -0.32 -0.96 0 -0.96 0.15999999999999998 C -0.96 0.48 -0.7999999999999999 0.6399999999999999 -0.6399999999999999 0.6399999999999999 C -0.32 0.64 0 0.32 0 0 Z M -2.24 7.21 C -2.4000000000000004 7.85 -2.8800000000000003 8.49 -3.5200000000000005 8.49 C -3.6800000000000006 8.49 -3.8400000000000003 8.49 -3.8400000000000003 8.49 C -3.5200000000000005 8.33 -3.5200000000000005 8.01 -3.5200000000000005 8.01 C -3.5200000000000005 7.6899999999999995 -3.6800000000000006 7.529999999999999 -4 7.529999999999999 C -4.32 7.529999999999999 -4.48 7.85 -4.48 8.17 C -4.48 8.65 -4.16 8.81 -3.5200000000000005 8.81 C -2.8800000000000003 8.81 -1.7600000000000005 8.49 -1.4400000000000004 7.210000000000001 L -0.4800000000000004 3.3600000000000008 C -0.4800000000000004 3.2000000000000006 -0.4800000000000004 3.2000000000000006 -0.4800000000000004 3.040000000000001 C -0.4800000000000004 2.400000000000001 -0.8000000000000005 1.9200000000000008 -1.4400000000000004 1.9200000000000008 C -2.5600000000000005 1.9200000000000008 -3.2 3.520000000000001 -3.2 3.6800000000000006 C -3.2 3.6800000000000006 -3.2 3.6800000000000006 -3.04 3.6800000000000006 C -3.04 3.6800000000000006 -3.04 3.6800000000000006 -2.88 3.5200000000000005 C -2.56 2.8800000000000003 -2.08 2.24 -1.44 2.24 C -1.28 2.24 -1.1199999999999999 2.4000000000000004 -1.1199999999999999 2.72 C -1.1199999999999999 2.8800000000000003 -1.1199999999999999 3.04 -1.2799999999999998 3.2 z" stroke-linecap="round" />
</g>
		<g transform="matrix(1 0 0 1 39.5 7.67)" clip-path="url(#CLIPPATH_61)"  >
<clipPath id="CLIPPATH_61" >
	<path transform="matrix(1 0 0 1 -479.56 -368.65) translate(-396.88, -561.52)" d="M 0 0.48 L 0 1122.5601 L 793.76001 1122.5601 L 793.76001 0.48 Z" stroke-linecap="round" />
</clipPath>
<path style="stroke: none; stroke-width: 1; stroke-dasharray: none; stroke-linecap: butt; stroke-dashoffset: 0; stroke-linejoin: miter; stroke-miterlimit: 4; fill: rgb(0,0,0); fill-rule: nonzero; opacity: 1;" vector-effect="non-scaling-stroke"  transform=" translate(-2.25, 2.08)" d="M 0 0 C 0 0.32 0 0.32 -0.64 0.32 C -0.8 0.32 -0.8 0.32 -0.8 0.48 C -0.9600000000000001 0.48 -0.9600000000000001 0.48 -0.9600000000000001 0.64 C -0.9600000000000001 0.64 -0.8 0.64 -0.6400000000000001 0.64 L 2.56 0.64 C 4.01 0.64 4.970000000000001 -0.16000000000000003 4.970000000000001 -0.9600000000000001 C 4.970000000000001 -1.44 4.65 -2.08 3.6900000000000004 -2.08 C 4.49 -2.24 5.45 -2.88 5.45 -3.68 C 5.45 -4.16 4.8100000000000005 -4.800000000000001 3.6900000000000004 -4.800000000000001 L 0.64 -4.800000000000001 C 0.48 -4.800000000000001 0.32 -4.800000000000001 0.32 -4.48 C 0.32 -4.48 0.48 -4.48 0.64 -4.48 C 0.8 -4.48 0.96 -4.48 1.12 -4.32 C 1.12 -4.32 1.12 -4.32 1.12 -4.16 z M 1.28 -2.24 L 1.76 -4.16 C 1.92 -4.48 1.92 -4.48 2.24 -4.48 L 3.5300000000000002 -4.48 C 4.33 -4.48 4.65 -4 4.65 -3.5200000000000005 C 4.65 -2.8800000000000003 3.8500000000000005 -2.24 2.8800000000000003 -2.24 z M 0.96 0.32 C 0.7999999999999999 0.32 0.7999999999999999 0.32 0.6399999999999999 0.32 L 1.2799999999999998 -2.08 L 3.04 -2.08 C 4.01 -2.08 4.17 -1.44 4.17 -1.12 C 4.17 -0.32000000000000006 3.36 0.31999999999999984 2.4 0.31999999999999984 z" stroke-linecap="round" />
</g>
		<g transform="matrix(1 0 0 1 45.36 10.31)" clip-path="url(#CLIPPATH_62)"  >
<clipPath id="CLIPPATH_62" >
	<path transform="matrix(1 0 0 1 -494.54 -370.81) translate(-396.88, -561.52)" d="M 0 0.48 L 0 1122.5601 L 793.76001 1122.5601 L 793.76001 0.48 Z" stroke-linecap="round" />
</clipPath>
<path style="stroke: none; stroke-width: 1; stroke-dasharray: none; stroke-linecap: butt; stroke-dashoffset: 0; stroke-linejoin: miter; stroke-miterlimit: 4; fill: rgb(0,0,0); fill-rule: nonzero; opacity: 1;" vector-effect="non-scaling-stroke"  transform=" translate(1.04, -1.04)" d="M 0 0 C 0 0 -0.32 0.16 -0.32 0.32 C -0.32 0.48 -0.16 0.64 0 0.64 C 0.16 0.64 0.49 0.48 0.49 0.16000000000000003 C 0.49 -0.31999999999999995 -0.16000000000000003 -0.48 -0.48 -0.48 C -1.6 -0.48 -2.72 0.48 -2.72 1.44 C -2.72 1.92 -2.24 2.56 -1.2800000000000002 2.56 C -1.1200000000000003 2.56 -0.6400000000000002 2.56 -0.16000000000000014 2.4 C 0.32 2.24 0.65 1.92 0.65 1.92 C 0.65 1.76 0.49 1.76 0.49 1.76 C 0.49 1.76 0.49 1.76 0.31999999999999995 1.76 C -5.551115123125783e-17 2.08 -0.4800000000000001 2.4 -1.2800000000000002 2.4 C -1.7600000000000002 2.4 -2.08 2.08 -2.08 1.5999999999999999 C -2.08 0.9599999999999999 -1.6 -0.16000000000000014 -0.48 -0.16000000000000014 C -0.48 -0.16000000000000014 -0.15999999999999998 -0.16000000000000014 0 -1.3877787807814457e-16 z" stroke-linecap="round" />
</g>
		<g transform="matrix(1 0 0 1 41.83 12.48)" clip-path="url(#CLIPPATH_63)"  >
<clipPath id="CLIPPATH_63" >
	<path transform="matrix(1 0 0 1 -47.66 91.48) translate(-396.88, -561.52)" d="M 0 0.48 L 0 1122.5601 L 793.76001 1122.5601 L 793.76001 0.48 Z" stroke-linecap="round" />
</clipPath>
<path style="stroke: rgb(0,0,0); stroke-width: 0.48; stroke-dasharray: none; stroke-linecap: butt; stroke-dashoffset: 0; stroke-linejoin: miter; stroke-miterlimit: 10; fill: none; fill-rule: nonzero; opacity: 1;" vector-effect="non-scaling-stroke"  transform=" translate(-438.79, -467.67)" d="M 432.62 467.67001 L 444.95999 467.67001" stroke-linecap="round" />
</g>
		<g transform="matrix(1 0 0 1 41.82 16.72)" clip-path="url(#CLIPPATH_64)"  >
<clipPath id="CLIPPATH_64" >
	<path transform="matrix(1 0 0 1 -488.29 -385.71) translate(-396.88, -561.52)" d="M 0 0.48 L 0 1122.5601 L 793.76001 1122.5601 L 793.76001 0.48 Z" stroke-linecap="round" />
</clipPath>
<path style="stroke: none; stroke-width: 1; stroke-dasharray: none; stroke-linecap: butt; stroke-dashoffset: 0; stroke-linejoin: miter; stroke-miterlimit: 4; fill: rgb(0,0,0); fill-rule: nonzero; opacity: 1;" vector-effect="non-scaling-stroke"  transform=" translate(1.84, 1.04)" d="M 0 0 L -0.32 0 C -0.32 0.16 -0.32 0.64 -0.48 0.8 C -0.48 0.8 -1.28 0.8 -1.28 0.8 L -2.88 0.8 L -1.76 0 C -1.44 -0.16 -0.8 -0.64 -0.48 -0.96 C -0.32 -1.12 0 -1.6 0 -2.08 C 0 -3.2 -0.96 -3.68 -1.92 -3.68 C -3.05 -3.68 -3.69 -3.04 -3.69 -2.24 C -3.69 -1.9200000000000002 -3.37 -1.9200000000000002 -3.21 -1.9200000000000002 C -3.05 -1.9200000000000002 -2.88 -1.9200000000000002 -2.88 -2.24 C -2.88 -2.4000000000000004 -2.88 -2.72 -3.37 -2.72 C -3.0500000000000003 -3.04 -2.56 -3.3600000000000003 -2.08 -3.3600000000000003 C -1.28 -3.3600000000000003 -0.8 -2.8800000000000003 -0.8 -2.08 C -0.8 -1.6 -1.12 -0.96 -1.76 -0.48 L -3.69 1.28 C -3.69 1.28 -3.69 1.28 -3.69 1.6 L -0.16000000000000014 1.6 z" stroke-linecap="round" />
</g>
		<g transform="matrix(1 0 0 1 106.66 12.71)" clip-path="url(#CLIPPATH_65)"  >
<clipPath id="CLIPPATH_65" >
	<path transform="matrix(1 0 0 1 -618.35 -372.41) translate(-396.88, -561.52)" d="M 0 0.48 L 0 1122.5601 L 793.76001 1122.5601 L 793.76001 0.48 Z" stroke-linecap="round" />
</clipPath>
<path style="stroke: none; stroke-width: 1; stroke-dasharray: none; stroke-linecap: butt; stroke-dashoffset: 0; stroke-linejoin: miter; stroke-miterlimit: 4; fill: rgb(0,0,0); fill-rule: nonzero; opacity: 1;" vector-effect="non-scaling-stroke"  transform=" translate(2.25, -4.25)" d="M 0 0 C 0 -0.16 -0.16 -0.32 -0.32 -0.32 C -0.64 -0.32 -0.96 0 -0.96 0.15999999999999998 C -0.96 0.48 -0.7999999999999999 0.6399999999999999 -0.48 0.6399999999999999 C -0.16 0.64 0 0.32 0 0 Z M -2.25 7.21 C -2.41 7.85 -2.89 8.49 -3.5300000000000002 8.49 C -3.6900000000000004 8.49 -3.85 8.49 -3.85 8.49 C -3.5300000000000002 8.33 -3.5300000000000002 8.01 -3.5300000000000002 8.01 C -3.5300000000000002 7.6899999999999995 -3.6900000000000004 7.529999999999999 -3.85 7.529999999999999 C -4.17 7.529999999999999 -4.49 7.85 -4.49 8.17 C -4.49 8.65 -4.17 8.81 -3.5300000000000002 8.81 C -2.89 8.81 -1.6000000000000003 8.49 -1.2800000000000002 7.210000000000001 L -0.3200000000000003 3.3600000000000008 C -0.3200000000000003 3.2000000000000006 -0.3200000000000003 3.2000000000000006 -0.3200000000000003 3.040000000000001 C -0.3200000000000003 2.400000000000001 -0.8000000000000003 1.9200000000000008 -1.4400000000000004 1.9200000000000008 C -2.5700000000000003 1.9200000000000008 -3.2100000000000004 3.520000000000001 -3.2100000000000004 3.6800000000000006 C -3.2100000000000004 3.6800000000000006 -3.2100000000000004 3.6800000000000006 -3.0500000000000003 3.6800000000000006 C -2.89 3.6800000000000006 -2.89 3.6800000000000006 -2.89 3.5200000000000005 C -2.5700000000000003 2.8800000000000003 -1.9300000000000002 2.24 -1.4400000000000002 2.24 C -1.2800000000000002 2.24 -1.12 2.4000000000000004 -1.12 2.72 C -1.12 2.8800000000000003 -1.12 3.04 -1.12 3.2 z" stroke-linecap="round" />
</g>
		<g transform="matrix(1 0 0 1 115.22 7.67)" clip-path="url(#CLIPPATH_66)"  >
<clipPath id="CLIPPATH_66" >
	<path transform="matrix(1 0 0 1 -631.08 -368.65) translate(-396.88, -561.52)" d="M 0 0.48 L 0 1122.5601 L 793.76001 1122.5601 L 793.76001 0.48 Z" stroke-linecap="round" />
</clipPath>
<path style="stroke: none; stroke-width: 1; stroke-dasharray: none; stroke-linecap: butt; stroke-dashoffset: 0; stroke-linejoin: miter; stroke-miterlimit: 4; fill: rgb(0,0,0); fill-rule: nonzero; opacity: 1;" vector-effect="non-scaling-stroke"  transform=" translate(-2.17, 2.08)" d="M 0 0 C -0.16 0.32 -0.16 0.32 -0.8 0.32 C -0.9600000000000001 0.32 -0.9600000000000001 0.32 -0.9600000000000001 0.48 C -0.9600000000000001 0.48 -0.9600000000000001 0.48 -0.9600000000000001 0.64 C -0.9600000000000001 0.64 -0.9600000000000001 0.64 -0.8 0.64 L 2.41 0.64 C 3.85 0.64 4.970000000000001 -0.16000000000000003 4.970000000000001 -0.9600000000000001 C 4.970000000000001 -1.44 4.49 -2.08 3.5300000000000007 -2.08 C 4.49 -2.24 5.290000000000001 -2.88 5.290000000000001 -3.68 C 5.290000000000001 -4.16 4.650000000000001 -4.800000000000001 3.530000000000001 -4.800000000000001 L 0.49 -4.800000000000001 C 0.32999999999999996 -4.800000000000001 0.32999999999999996 -4.800000000000001 0.32999999999999996 -4.48 C 0.32999999999999996 -4.48 0.32999999999999996 -4.48 0.49 -4.48 C 0.65 -4.48 0.81 -4.48 0.97 -4.32 C 0.97 -4.32 0.97 -4.32 0.97 -4.16 z M 1.29 -2.24 L 1.77 -4.16 C 1.77 -4.48 1.77 -4.48 2.09 -4.48 L 3.53 -4.48 C 4.33 -4.48 4.49 -4 4.49 -3.5200000000000005 C 4.49 -2.8800000000000003 3.6900000000000004 -2.24 2.7300000000000004 -2.24 z M 0.81 0.32 C 0.81 0.32 0.65 0.32 0.65 0.32 L 1.13 -2.08 L 2.8899999999999997 -2.08 C 4.01 -2.08 4.17 -1.44 4.17 -1.12 C 4.17 -0.32000000000000006 3.21 0.31999999999999984 2.25 0.31999999999999984 z" stroke-linecap="round" />
</g>
		<g transform="matrix(1 0 0 1 121.08 10.31)" clip-path="url(#CLIPPATH_67)"  >
<clipPath id="CLIPPATH_67" >
	<path transform="matrix(1 0 0 1 -646.07 -370.81) translate(-396.88, -561.52)" d="M 0 0.48 L 0 1122.5601 L 793.76001 1122.5601 L 793.76001 0.48 Z" stroke-linecap="round" />
</clipPath>
<path style="stroke: none; stroke-width: 1; stroke-dasharray: none; stroke-linecap: butt; stroke-dashoffset: 0; stroke-linejoin: miter; stroke-miterlimit: 4; fill: rgb(0,0,0); fill-rule: nonzero; opacity: 1;" vector-effect="non-scaling-stroke"  transform=" translate(1.12, -1.04)" d="M 0 0 C -0.16 0 -0.32 0.16 -0.32 0.32 C -0.32 0.48 -0.16 0.64 0 0.64 C 0.16 0.64 0.32 0.48 0.32 0.16000000000000003 C 0.32 -0.31999999999999995 -0.32 -0.48 -0.6399999999999999 -0.48 C -1.76 -0.48 -2.7199999999999998 0.48 -2.7199999999999998 1.44 C -2.7199999999999998 1.92 -2.2399999999999998 2.56 -1.2799999999999998 2.56 C -1.1199999999999999 2.56 -0.6399999999999998 2.56 -0.1599999999999997 2.4 C 0.1600000000000003 2.2399999999999998 0.4800000000000003 1.92 0.4800000000000003 1.92 C 0.4800000000000003 1.76 0.4800000000000003 1.76 0.3200000000000003 1.76 C 0.3200000000000003 1.76 0.3200000000000003 1.76 0.16000000000000028 1.76 C -0.15999999999999973 2.08 -0.6399999999999998 2.4 -1.2799999999999996 2.4 C -1.9199999999999995 2.4 -2.0799999999999996 2.08 -2.0799999999999996 1.5999999999999999 C -2.0799999999999996 0.9599999999999999 -1.7599999999999996 -0.16000000000000014 -0.6399999999999997 -0.16000000000000014 C -0.6399999999999997 -0.16000000000000014 -0.3199999999999997 -0.16000000000000014 3.3306690738754696e-16 -1.3877787807814457e-16 z" stroke-linecap="round" />
</g>
		<g transform="matrix(1 0 0 1 117.55 12.48)" clip-path="url(#CLIPPATH_68)"  >
<clipPath id="CLIPPATH_68" >
	<path transform="matrix(1 0 0 1 -123.38 91.48) translate(-396.88, -561.52)" d="M 0 0.48 L 0 1122.5601 L 793.76001 1122.5601 L 793.76001 0.48 Z" stroke-linecap="round" />
</clipPath>
<path style="stroke: rgb(0,0,0); stroke-width: 0.48; stroke-dasharray: none; stroke-linecap: butt; stroke-dashoffset: 0; stroke-linejoin: miter; stroke-miterlimit: 10; fill: none; fill-rule: nonzero; opacity: 1;" vector-effect="non-scaling-stroke"  transform=" translate(-514.51, -467.67)" d="M 508.26001 467.67001 L 520.76001 467.67001" stroke-linecap="round" />
</g>
		<g transform="matrix(1 0 0 1 117.47 16.72)" clip-path="url(#CLIPPATH_69)"  >
<clipPath id="CLIPPATH_69" >
	<path transform="matrix(1 0 0 1 -639.59 -385.71) translate(-396.88, -561.52)" d="M 0 0.48 L 0 1122.5601 L 793.76001 1122.5601 L 793.76001 0.48 Z" stroke-linecap="round" />
</clipPath>
<path style="stroke: none; stroke-width: 1; stroke-dasharray: none; stroke-linecap: butt; stroke-dashoffset: 0; stroke-linejoin: miter; stroke-miterlimit: 4; fill: rgb(0,0,0); fill-rule: nonzero; opacity: 1;" vector-effect="non-scaling-stroke"  transform=" translate(1.84, 1.04)" d="M 0 0 L -0.17 0 C -0.17 0.16 -0.33 0.64 -0.49 0.8 C -0.49 0.8 -1.13 0.8 -1.29 0.8 L -2.73 0.8 L -1.77 0 C -1.45 -0.16 -0.81 -0.64 -0.49 -0.96 C -0.33 -1.12 0 -1.6 0 -2.08 C 0 -3.2 -0.81 -3.68 -1.93 -3.68 C -2.8899999999999997 -3.68 -3.69 -3.04 -3.69 -2.24 C -3.69 -1.9200000000000002 -3.37 -1.9200000000000002 -3.21 -1.9200000000000002 C -3.05 -1.9200000000000002 -2.73 -1.9200000000000002 -2.73 -2.24 C -2.73 -2.4000000000000004 -2.89 -2.72 -3.21 -2.72 C -3.05 -3.04 -2.57 -3.3600000000000003 -2.09 -3.3600000000000003 C -1.13 -3.3600000000000003 -0.8099999999999998 -2.8800000000000003 -0.8099999999999998 -2.08 C -0.8099999999999998 -1.6 -1.13 -0.96 -1.6099999999999999 -0.48 L -3.53 1.28 C -3.69 1.28 -3.69 1.28 -3.69 1.6 L -0.16999999999999993 1.6 z" stroke-linecap="round" />
</g>
		<g transform="matrix(1.33 0 0 1.33 -66.03 -43.74)"  >
<path style="stroke: none; stroke-width: 1; stroke-dasharray: none; stroke-linecap: butt; stroke-dashoffset: 0; stroke-linejoin: miter; stroke-miterlimit: 4; fill: rgb(0,0,0); fill-rule: nonzero; opacity: 1;" vector-effect="non-scaling-stroke"  transform=" translate(-4.38, 2.15)" d="M 0.875 -0.59375 C 0.84375 -0.4375 0.78125 -0.203125 0.78125 -0.15625 C 0.78125 0.015625 0.921875 0.109375 1.078125 0.109375 C 1.203125 0.109375 1.375 0.03125 1.453125 -0.171875 C 1.453125 -0.1875 1.578125 -0.65625 1.640625 -0.90625 L 1.859375 -1.796875 C 1.90625 -2.03125 1.96875 -2.25 2.03125 -2.46875 C 2.0625 -2.640625 2.140625 -2.9375 2.15625 -2.96875 C 2.296875 -3.28125 2.828125 -4.1875 3.78125 -4.1875 C 4.234375 -4.1875 4.3125 -3.8125 4.3125 -3.484375 C 4.3125 -3.234375 4.25 -2.953125 4.171875 -2.65625 L 3.890625 -1.5 L 3.6875 -0.75 C 3.65625 -0.546875 3.5625 -0.203125 3.5625 -0.15625 C 3.5625 0.015625 3.703125 0.109375 3.84375 0.109375 C 4.15625 0.109375 4.21875 -0.140625 4.296875 -0.453125 C 4.4375 -1.015625 4.8125 -2.46875 4.890625 -2.859375 C 4.921875 -2.984375 5.453125 -4.1875 6.546875 -4.1875 C 6.96875 -4.1875 7.078125 -3.84375 7.078125 -3.484375 C 7.078125 -2.921875 6.65625 -1.78125 6.453125 -1.25 C 6.375 -1.015625 6.328125 -0.90625 6.328125 -0.703125 C 6.328125 -0.234375 6.671875 0.109375 7.140625 0.109375 C 8.078125 0.109375 8.453125 -1.34375 8.453125 -1.421875 C 8.453125 -1.53125 8.359375 -1.53125 8.328125 -1.53125 C 8.234375 -1.53125 8.234375 -1.5 8.1875 -1.34375 C 8.03125 -0.8125 7.71875 -0.109375 7.171875 -0.109375 C 7 -0.109375 6.921875 -0.203125 6.921875 -0.4375 C 6.921875 -0.6875 7.015625 -0.921875 7.109375 -1.140625 C 7.296875 -1.671875 7.71875 -2.765625 7.71875 -3.34375 C 7.71875 -3.984375 7.3125 -4.40625 6.5625 -4.40625 C 5.828125 -4.40625 5.3125 -3.96875 4.9375 -3.4375 C 4.9375 -3.5625 4.90625 -3.90625 4.625 -4.140625 C 4.375 -4.359375 4.0625 -4.40625 3.8125 -4.40625 C 2.90625 -4.40625 2.421875 -3.765625 2.25 -3.53125 C 2.203125 -4.109375 1.78125 -4.40625 1.328125 -4.40625 C 0.875 -4.40625 0.6875 -4.015625 0.59375 -3.84375 C 0.421875 -3.484375 0.296875 -2.90625 0.296875 -2.875 C 0.296875 -2.765625 0.390625 -2.765625 0.40625 -2.765625 C 0.515625 -2.765625 0.515625 -2.78125 0.578125 -3 C 0.75 -3.703125 0.953125 -4.1875 1.3125 -4.1875 C 1.46875 -4.1875 1.609375 -4.109375 1.609375 -3.734375 C 1.609375 -3.515625 1.578125 -3.40625 1.453125 -2.890625 z M 0.875 -0.59375" stroke-linecap="round" />
</g>
		<g transform="matrix(1.33 0 0 1.33 -57.6 -40.03)"  >
<path style="stroke: none; stroke-width: 1; stroke-dasharray: none; stroke-linecap: butt; stroke-dashoffset: 0; stroke-linejoin: miter; stroke-miterlimit: 4; fill: rgb(0,0,0); fill-rule: nonzero; opacity: 1;" vector-effect="non-scaling-stroke"  transform=" translate(-1.94, 0.86)" d="M 0.515625 0.84375 C 0.46875 1.046875 0.453125 1.09375 0.1875 1.09375 C 0.09375 1.09375 0 1.09375 0 1.25 C 0 1.328125 0.0625 1.359375 0.09375 1.359375 C 0.265625 1.359375 0.5 1.328125 0.6875 1.328125 C 0.921875 1.328125 1.1875 1.359375 1.421875 1.359375 C 1.484375 1.359375 1.5625 1.328125 1.5625 1.203125 C 1.5625 1.09375 1.46875 1.09375 1.375 1.09375 C 1.21875 1.09375 1.03125 1.09375 1.03125 1.015625 C 1.03125 0.984375 1.09375 0.796875 1.109375 0.703125 C 1.203125 0.328125 1.296875 -0.046875 1.375 -0.34375 C 1.453125 -0.203125 1.671875 0.0625 2.09375 0.0625 C 2.9375 0.0625 3.875 -0.875 3.875 -1.90625 C 3.875 -2.71875 3.3125 -3.078125 2.84375 -3.078125 C 2.40625 -3.078125 2.03125 -2.78125 1.84375 -2.578125 C 1.734375 -2.984375 1.34375 -3.078125 1.125 -3.078125 C 0.859375 -3.078125 0.6875 -2.890625 0.578125 -2.703125 C 0.4375 -2.46875 0.328125 -2.046875 0.328125 -2 C 0.328125 -1.921875 0.421875 -1.921875 0.453125 -1.921875 C 0.546875 -1.921875 0.546875 -1.9375 0.59375 -2.125 C 0.703125 -2.53125 0.84375 -2.875 1.109375 -2.875 C 1.296875 -2.875 1.34375 -2.71875 1.34375 -2.53125 C 1.34375 -2.453125 1.328125 -2.375 1.3125 -2.328125 z M 1.84375 -2.234375 C 2.25 -2.78125 2.59375 -2.875 2.8125 -2.875 C 3.09375 -2.875 3.328125 -2.671875 3.328125 -2.203125 C 3.328125 -1.921875 3.171875 -1.203125 2.96875 -0.796875 C 2.78125 -0.453125 2.453125 -0.125 2.09375 -0.125 C 1.59375 -0.125 1.46875 -0.65625 1.46875 -0.734375 C 1.46875 -0.765625 1.484375 -0.8125 1.484375 -0.84375 z M 1.84375 -2.234375" stroke-linecap="round" />
</g>
		<g transform="matrix(1.33 0 0 1.33 -50.88 -43.74)"  >
<path style="stroke: none; stroke-width: 1; stroke-dasharray: none; stroke-linecap: butt; stroke-dashoffset: 0; stroke-linejoin: miter; stroke-miterlimit: 4; fill: rgb(0,0,0); fill-rule: nonzero; opacity: 1;" vector-effect="non-scaling-stroke"  transform=" translate(-2.37, 2.15)" d="M 1.859375 -2.296875 C 2.15625 -2.296875 2.890625 -2.328125 3.390625 -2.53125 C 4.09375 -2.828125 4.140625 -3.421875 4.140625 -3.5625 C 4.140625 -4 3.765625 -4.40625 3.078125 -4.40625 C 1.96875 -4.40625 0.453125 -3.4375 0.453125 -1.6875 C 0.453125 -0.671875 1.046875 0.109375 2.03125 0.109375 C 3.453125 0.109375 4.28125 -0.953125 4.28125 -1.0625 C 4.28125 -1.125 4.234375 -1.203125 4.171875 -1.203125 C 4.109375 -1.203125 4.09375 -1.171875 4.03125 -1.09375 C 3.25 -0.109375 2.15625 -0.109375 2.046875 -0.109375 C 1.265625 -0.109375 1.171875 -0.953125 1.171875 -1.265625 C 1.171875 -1.390625 1.1875 -1.6875 1.328125 -2.296875 z M 1.390625 -2.515625 C 1.78125 -4.03125 2.8125 -4.1875 3.078125 -4.1875 C 3.53125 -4.1875 3.8125 -3.890625 3.8125 -3.5625 C 3.8125 -2.515625 2.21875 -2.515625 1.796875 -2.515625 z M 1.390625 -2.515625" stroke-linecap="round" />
</g>
		<g transform="matrix(1.33 0 0 1.33 -45.81 -47.83)"  >
<path style="stroke: none; stroke-width: 1; stroke-dasharray: none; stroke-linecap: butt; stroke-dashoffset: 0; stroke-linejoin: miter; stroke-miterlimit: 4; fill: rgb(0,0,0); fill-rule: nonzero; opacity: 1;" vector-effect="non-scaling-stroke"  transform=" translate(-1.53, 1.6)" d="M 3.0625 -4.359375 C 3.0625 -4.46875 2.96875 -4.625 2.78125 -4.625 C 2.578125 -4.625 2.390625 -4.421875 2.390625 -4.234375 C 2.390625 -4.125 2.46875 -3.96875 2.671875 -3.96875 C 2.859375 -3.96875 3.0625 -4.15625 3.0625 -4.359375 z M 1.578125 0.34375 C 1.46875 0.828125 1.09375 1.21875 0.6875 1.21875 C 0.59375 1.21875 0.515625 1.21875 0.4375 1.1875 C 0.609375 1.09375 0.671875 0.9375 0.671875 0.828125 C 0.671875 0.65625 0.53125 0.578125 0.390625 0.578125 C 0.1875 0.578125 0 0.765625 0 0.984375 C 0 1.25 0.265625 1.421875 0.6875 1.421875 C 1.109375 1.421875 1.921875 1.171875 2.140625 0.328125 L 2.765625 -2.171875 C 2.78125 -2.25 2.796875 -2.3125 2.796875 -2.421875 C 2.796875 -2.796875 2.46875 -3.078125 2.0625 -3.078125 C 1.28125 -3.078125 0.84375 -2.109375 0.84375 -2 C 0.84375 -1.921875 0.9375 -1.921875 0.953125 -1.921875 C 1.03125 -1.921875 1.046875 -1.9375 1.09375 -2.046875 C 1.265625 -2.453125 1.625 -2.875 2.03125 -2.875 C 2.203125 -2.875 2.265625 -2.765625 2.265625 -2.53125 C 2.265625 -2.453125 2.265625 -2.359375 2.25 -2.328125 z M 1.578125 0.34375" stroke-linecap="round" />
</g>
		<g transform="matrix(1.33 0 0 1.33 -40.01 -47.64)"  >
<path style="stroke: none; stroke-width: 1; stroke-dasharray: none; stroke-linecap: butt; stroke-dashoffset: 0; stroke-linejoin: miter; stroke-miterlimit: 4; fill: rgb(0,0,0); fill-rule: nonzero; opacity: 1;" vector-effect="non-scaling-stroke"  transform=" translate(-2.19, 1.46)" d="M 2.390625 -2.53125 L 3.6875 -2.53125 C 3.765625 -2.53125 4.0625 -2.53125 4.0625 -2.8125 C 4.0625 -3 3.875 -3 3.75 -3 L 1.5625 -3 C 1.359375 -3 1.140625 -2.984375 0.78125 -2.65625 C 0.578125 -2.46875 0.3125 -2.109375 0.3125 -2.046875 C 0.3125 -1.96875 0.40625 -1.96875 0.4375 -1.96875 C 0.515625 -1.96875 0.515625 -1.984375 0.5625 -2.046875 C 0.90625 -2.53125 1.34375 -2.53125 1.5 -2.53125 L 2.125 -2.53125 L 1.421875 -0.296875 C 1.390625 -0.1875 1.390625 -0.1875 1.390625 -0.140625 C 1.390625 0.046875 1.5625 0.078125 1.625 0.078125 C 1.890625 0.078125 1.9375 -0.171875 1.953125 -0.265625 z M 2.390625 -2.53125" stroke-linecap="round" />
</g>
</g>
</g>
<g transform="matrix(0.42 0 0 1.13 450.31 552.52)" id="31c6ee2b-b4d1-48cd-92e0-889ec191e13a"  >
<rect style="stroke: rgb(255,255,255); stroke-width: 0; stroke-dasharray: none; stroke-linecap: butt; stroke-dashoffset: 0; stroke-linejoin: miter; stroke-miterlimit: 4; fill: rgb(255,255,255); fill-rule: nonzero; opacity: 1;" vector-effect="non-scaling-stroke"  x="-33.085" y="-33.085" rx="0" ry="0" width="66.17" height="66.17" />
</g>
<g transform="matrix(0.42 0 0 1.13 520.98 552.26)" id="31c6ee2b-b4d1-48cd-92e0-889ec191e13a"  >
<rect style="stroke: rgb(255,255,255); stroke-width: 0; stroke-dasharray: none; stroke-linecap: butt; stroke-dashoffset: 0; stroke-linejoin: miter; stroke-miterlimit: 4; fill: rgb(255,255,255); fill-rule: nonzero; opacity: 1;" vector-effect="non-scaling-stroke"  x="-33.085" y="-33.085" rx="0" ry="0" width="66.17" height="66.17" />
</g>
<g transform="matrix(0.66 0 0 0.37 436.74 557.78)" id="66b7c79c-cab7-4ec6-b6b5-57ed7f92a3f7"  >
<rect style="stroke: rgb(255,255,255); stroke-width: 0; stroke-dasharray: none; stroke-linecap: butt; stroke-dashoffset: 0; stroke-linejoin: miter; stroke-miterlimit: 4; fill: rgb(255,255,255); fill-rule: nonzero; opacity: 1;" vector-effect="non-scaling-stroke"  x="-33.0835" y="-33.0835" rx="0" ry="0" width="66.167" height="66.167" />
</g>
<g transform="matrix(0.66 0 0 0.37 510.41 556.16)" id="66b7c79c-cab7-4ec6-b6b5-57ed7f92a3f7"  >
<rect style="stroke: rgb(255,255,255); stroke-width: 0; stroke-dasharray: none; stroke-linecap: butt; stroke-dashoffset: 0; stroke-linejoin: miter; stroke-miterlimit: 4; fill: rgb(255,255,255); fill-rule: nonzero; opacity: 1;" vector-effect="non-scaling-stroke"  x="-33.085" y="-33.085" rx="0" ry="0" width="66.17" height="66.17" />
</g>
</svg>